<?xml version="1.0" standalone="no"?>
<!DOCTYPE svg PUBLIC "-//W3C//DTD SVG 20010904//EN"
 "http://www.w3.org/TR/2001/REC-SVG-20010904/DTD/svg10.dtd">
<svg version="1.0" xmlns="http://www.w3.org/2000/svg"
 width="1118.000000pt" height="1115.000000pt" viewBox="0 0 1118.000000 1115.000000"
 preserveAspectRatio="xMidYMid meet">

<g transform="translate(0.000000,1115.000000) scale(0.100000,-0.100000)"
fill="#000000" stroke="none">
<path d="M5210 11079 c-146 -8 -366 -33 -450 -51 -25 -5 -76 -14 -115 -19 -38
-5 -81 -14 -95 -19 -14 -5 -63 -16 -110 -24 -145 -26 -172 -33 -180 -47 -5 -7
-17 -14 -27 -15 -10 -1 -44 -5 -76 -9 -36 -4 -60 -12 -64 -21 -3 -9 -21 -14
-54 -14 -28 0 -49 -5 -49 -11 0 -5 -4 -7 -10 -4 -5 3 -10 2 -10 -3 0 -5 -23
-12 -52 -14 -29 -3 -54 -11 -56 -17 -2 -6 -8 -9 -13 -5 -5 3 -9 1 -9 -4 0 -5
-19 -9 -42 -10 -25 -1 -48 -8 -54 -17 -6 -8 -25 -15 -43 -15 -18 0 -40 -9 -51
-20 -12 -12 -25 -18 -29 -15 -13 7 -72 -16 -65 -26 3 -5 -1 -9 -8 -10 -59 -3
-71 -7 -79 -22 -6 -10 -22 -17 -39 -17 -17 0 -30 -4 -30 -9 0 -11 -39 -26 -58
-23 -6 2 -20 -2 -30 -8 -15 -10 -15 -11 3 -6 20 6 20 6 1 -9 -11 -8 -32 -15
-48 -15 -15 0 -37 -9 -49 -21 -11 -11 -27 -18 -35 -15 -8 3 -20 -3 -26 -14 -9
-13 -24 -20 -45 -20 -24 0 -31 -4 -27 -14 4 -10 -6 -16 -35 -21 -23 -4 -39
-11 -36 -16 3 -5 -12 -11 -34 -15 -22 -3 -42 -13 -45 -20 -3 -8 -18 -14 -34
-14 -16 0 -37 -9 -47 -20 -10 -11 -23 -20 -30 -20 -7 0 -32 -11 -56 -25 -24
-13 -53 -29 -65 -34 -26 -12 -112 -70 -118 -80 -3 -4 -6 -85 -6 -180 -1 -133
-5 -174 -16 -185 -9 -9 -14 -36 -14 -70 l0 -56 -47 -1 c-27 0 -57 -4 -68 -8
-29 -11 -92 6 -131 35 -28 22 -34 33 -34 63 l0 38 88 -3 c63 -2 93 2 110 12
26 17 28 32 7 48 -16 12 -22 78 -11 114 7 21 5 22 -47 22 -48 0 -55 -3 -65
-25 -6 -14 -18 -25 -27 -25 -8 0 -15 -7 -15 -15 0 -16 -25 -21 -34 -6 -3 4
-17 6 -30 4 -29 -6 -40 -39 -34 -108 2 -26 -1 -44 -7 -42 -6 1 -9 25 -7 53 6
95 0 91 -268 -142 -239 -209 -530 -507 -530 -543 0 -6 -5 -11 -10 -11 -6 0
-15 -12 -20 -26 -6 -14 -14 -22 -20 -19 -5 3 -10 2 -10 -4 0 -20 68 -23 127
-5 64 19 59 18 128 33 134 31 205 54 205 67 0 9 11 14 30 14 l31 0 -3 -60 c-1
-32 1 -62 4 -66 4 -3 21 17 38 45 24 38 38 51 56 51 21 0 23 -3 17 -32 -3 -18
-12 -40 -19 -48 -12 -14 -9 -15 22 -12 l36 4 -4 59 c-2 35 1 59 7 59 6 0 11
-30 12 -68 2 -82 -5 -141 -16 -123 -6 10 -15 6 -34 -13 -15 -15 -40 -29 -57
-32 -16 -4 -30 -11 -30 -16 0 -5 -9 -4 -19 2 -11 5 -38 10 -60 10 -23 0 -41 5
-41 10 0 6 -7 10 -15 10 -8 0 -15 -4 -15 -9 0 -14 -128 -11 -143 3 -15 14
-307 9 -307 -5 0 -5 -6 -9 -13 -9 -7 0 -28 -13 -47 -30 -24 -22 -33 -37 -32
-60 0 -20 -4 -30 -14 -30 -9 0 -14 -11 -14 -30 0 -32 -29 -44 -31 -12 0 13 -2
12 -9 -5 -5 -13 -14 -23 -20 -23 -17 0 -11 -37 7 -44 15 -6 15 -9 3 -16 -8 -5
-18 -6 -22 -4 -4 3 -8 -19 -9 -48 -1 -29 -4 -64 -8 -78 -7 -22 -9 -20 -14 20
-4 25 -8 59 -9 75 -2 17 -7 30 -13 29 -11 -1 -164 -234 -163 -249 2 -36 -4
-56 -14 -53 -11 4 -58 -41 -58 -56 0 -3 -16 -30 -35 -60 -19 -30 -35 -58 -35
-62 0 -3 -15 -32 -34 -63 -19 -31 -59 -108 -90 -171 -32 -63 -62 -123 -67
-134 -6 -10 -17 -36 -24 -57 l-14 -39 742 -2 c408 0 750 -1 760 0 15 2 17 -8
17 -84 0 -68 -3 -84 -12 -77 -17 13 -85 8 -103 -7 -10 -9 -51 -12 -125 -11
-92 1 -110 -1 -110 -14 0 -10 -10 -15 -30 -15 -20 0 -30 -5 -30 -15 0 -8 -7
-15 -15 -15 -8 0 -15 -7 -15 -15 0 -8 -7 -15 -15 -15 -8 0 -15 -7 -15 -15 0
-12 -14 -15 -70 -15 -54 0 -72 -4 -76 -15 -4 -10 -20 -15 -48 -16 -22 0 -61
-8 -86 -18 -45 -18 -65 -41 -36 -41 13 0 16 -13 16 -75 0 -60 3 -75 15 -75 12
0 15 -18 15 -105 0 -87 -3 -105 -15 -105 -8 0 -15 7 -15 15 0 18 -17 20 -22 3
-5 -15 -78 -21 -78 -7 0 6 -7 18 -16 27 -13 13 -15 29 -10 93 7 71 6 79 -13
88 -11 6 -33 11 -50 11 -20 0 -34 7 -41 20 -6 11 -17 20 -25 20 -8 0 -15 7
-15 15 0 11 -12 15 -45 15 l-45 0 0 -60 c0 -38 4 -60 11 -60 8 0 8 -4 1 -12
-5 -7 -13 -29 -16 -48 -10 -53 -45 -125 -68 -139 -12 -8 -35 -10 -64 -5 -41 6
-46 10 -64 52 -11 25 -23 63 -27 85 -8 51 -48 100 -71 88 -20 -11 -112 -162
-112 -184 0 -11 -11 -14 -42 -12 -35 2 -47 -3 -70 -26 -15 -15 -28 -34 -28
-43 0 -25 -18 -28 -50 -9 -28 16 -30 21 -30 83 0 46 -3 61 -10 50 -5 -8 -10
-31 -10 -52 0 -20 -5 -38 -11 -40 -6 -2 -17 -28 -24 -58 -7 -30 -18 -70 -24
-89 -9 -29 -8 -34 9 -38 25 -7 26 -23 3 -23 -20 0 -48 -78 -59 -160 -3 -25
-12 -72 -19 -105 -7 -33 -17 -93 -20 -132 l-7 -73 888 -1 c541 0 880 -4 867
-9 -13 -5 -23 -14 -23 -20 0 -5 -7 -10 -15 -10 -8 0 -15 -7 -15 -15 0 -8 -7
-15 -15 -15 -8 0 -15 -7 -15 -15 0 -8 7 -15 15 -15 10 0 15 -10 15 -30 0 -20
5 -30 15 -30 8 0 15 -7 15 -15 0 -8 7 -15 15 -15 8 0 15 -7 15 -15 0 -11 12
-15 45 -15 33 0 45 4 45 15 0 8 7 15 15 15 20 0 20 -46 -1 -54 -9 -3 -26 -6
-38 -6 -41 0 -74 -56 -51 -87 8 -10 15 -35 15 -55 0 -27 4 -38 15 -38 11 0 15
-12 15 -45 0 -33 -4 -45 -15 -45 -12 0 -15 -14 -15 -65 0 -59 -2 -64 -17 -56
-56 30 -113 31 -113 2 0 -14 -47 -41 -73 -41 -4 0 -7 30 -7 68 0 44 -5 75 -15
89 -12 17 -14 40 -9 104 3 46 3 97 -1 115 -5 31 -9 33 -63 43 -31 6 -78 22
-105 36 -26 14 -54 25 -63 25 -16 0 -114 -96 -114 -112 0 -15 16 -8 40 17 35
37 42 31 36 -32 -3 -32 -5 -75 -5 -95 -1 -28 -5 -38 -17 -38 -12 0 -14 7 -9
30 6 26 4 30 -14 30 -18 0 -21 -6 -21 -45 0 -33 -4 -45 -15 -45 -8 0 -15 -7
-15 -15 0 -8 7 -15 15 -15 8 0 15 -7 15 -15 0 -8 -7 -15 -15 -15 -11 0 -15
-12 -15 -45 0 -35 -4 -45 -16 -45 -14 0 -16 8 -11 54 7 68 0 96 -23 96 -18 0
-30 26 -30 68 0 21 -3 23 -32 17 -18 -4 -39 -11 -48 -16 -8 -4 -23 -10 -32
-13 -11 -3 -18 -15 -18 -30 0 -26 -14 -36 -42 -28 -14 3 -18 15 -18 57 0 63
-15 80 -62 70 -59 -12 -67 -16 -70 -36 -3 -17 -12 -20 -87 -23 -100 -5 -111
-2 -111 30 0 20 -5 24 -32 24 -40 0 -118 -21 -100 -27 6 -3 12 -18 12 -34 0
-26 -4 -29 -30 -29 -19 0 -30 5 -30 14 0 13 -45 28 -55 18 -3 -3 -5 -16 -5
-29 0 -23 -1 -23 -22 -9 -12 9 -33 16 -46 16 -12 0 -25 7 -28 15 -7 18 -24 20
-24 2 0 -12 -20 -28 -68 -54 -13 -7 -36 -10 -51 -7 -25 5 -29 3 -35 -26 -6
-31 -8 -32 -44 -27 -20 4 -44 2 -52 -3 -11 -7 -17 -4 -22 13 -20 67 10 -831
31 -910 5 -21 15 -87 22 -148 6 -60 15 -117 19 -125 4 -8 11 -48 15 -88 6 -58
11 -75 27 -83 13 -7 17 -14 11 -20 -8 -8 -7 -59 1 -59 0 0 27 -4 60 -10 64
-10 86 -23 86 -50 0 -18 -41 -30 -101 -30 -23 0 -26 -3 -21 -25 2 -14 13 -30
23 -36 15 -8 19 -21 19 -64 0 -58 9 -66 38 -37 17 17 60 17 90 -2 14 -9 16
-36 3 -36 -5 0 -13 -9 -16 -20 -7 -22 -38 -26 -81 -10 -31 12 -31 13 6 -105
11 -38 25 -83 30 -100 4 -16 25 -75 45 -130 21 -55 45 -123 55 -151 10 -28 29
-75 43 -105 13 -30 37 -83 52 -119 57 -132 138 -290 146 -284 5 3 9 0 9 -7 0
-19 43 -79 57 -79 9 0 10 -7 3 -26 -9 -23 -4 -38 31 -103 61 -111 130 -212
140 -206 4 3 12 -7 15 -22 14 -54 147 -249 211 -308 18 -16 33 -35 33 -41 0
-14 133 -194 177 -241 17 -18 40 -33 52 -33 12 0 20 -3 20 -7 -4 -23 2 -43 11
-38 6 3 13 0 16 -9 3 -8 19 -18 35 -21 16 -4 29 -11 29 -16 0 -5 7 -9 16 -9
12 0 15 -6 10 -25 -5 -21 -2 -25 29 -31 20 -3 35 -12 35 -20 0 -8 7 -14 15
-14 8 0 15 7 15 15 0 10 10 15 30 15 20 0 30 -5 30 -15 0 -8 7 -15 15 -15 8 0
15 7 15 15 0 8 7 15 15 15 8 0 15 -7 15 -15 0 -8 7 -15 15 -15 8 0 15 -7 15
-15 0 -8 -7 -15 -15 -15 -8 0 -15 -6 -15 -12 -1 -29 -16 -35 -78 -28 -34 3
-62 2 -62 -2 0 -7 10 -18 113 -117 l56 -54 68 41 c113 69 208 172 158 172 -8
0 -15 7 -15 15 0 8 6 15 14 15 8 0 17 6 19 13 3 6 6 -31 6 -84 l1 -96 -95 -64
c-52 -34 -95 -66 -95 -70 0 -4 26 -30 58 -58 31 -27 101 -87 154 -133 53 -47
116 -98 140 -114 24 -16 61 -43 83 -60 116 -91 390 -273 575 -383 158 -93 386
-209 430 -217 16 -4 30 -10 30 -15 0 -5 9 -9 21 -9 11 0 32 -9 46 -20 14 -11
34 -20 45 -20 11 0 26 -7 34 -15 9 -8 31 -15 50 -15 20 0 37 -6 40 -14 9 -23
74 -19 149 10 11 4 25 8 30 9 6 0 9 7 7 15 -1 10 2 9 12 -3 11 -14 30 -19 79
-20 l65 -2 11 -36 c15 -48 14 -59 -4 -59 -27 0 -16 -39 15 -55 29 -15 31 -15
40 7 8 22 9 22 9 2 1 -23 44 -45 138 -70 394 -108 388 -107 466 -82 69 21 256
44 281 35 9 -4 16 -18 16 -32 l0 -25 -107 -1 c-60 -1 -121 -4 -138 -8 -26 -6
-22 -8 30 -15 33 -4 83 -13 110 -21 28 -7 84 -17 125 -21 41 -4 86 -11 100
-16 20 -8 387 -31 480 -31 81 1 282 1 325 0 79 0 423 21 433 27 5 3 54 10 108
16 55 6 112 15 128 20 15 5 67 14 114 20 47 6 92 15 101 20 10 5 43 11 75 14
53 5 95 15 154 37 22 8 22 12 23 176 1 132 3 162 12 141 8 -21 18 -28 39 -28
18 0 28 5 28 15 0 13 42 15 315 15 267 0 315 -2 315 -14 0 -18 37 -17 65 1 11
7 30 13 42 13 13 0 40 9 61 20 l37 20 -458 -2 c-251 -2 -457 0 -457 4 0 4 226
9 503 10 l502 3 120 60 c108 53 178 93 363 204 31 19 59 37 62 41 3 4 14 10
25 14 11 3 35 19 53 36 18 16 38 30 43 30 5 0 21 11 34 25 14 13 25 21 25 18
0 -4 12 4 26 18 14 13 27 23 30 22 12 -8 24 -1 24 12 0 8 4 15 8 15 5 0 19 9
32 20 13 11 28 20 35 20 7 0 25 11 41 25 16 14 52 38 79 54 28 16 91 62 140
103 l90 74 -4 83 c-5 128 10 551 20 545 5 -3 9 -13 9 -22 0 -14 8 -16 50 -14
41 3 50 1 50 -12 0 -9 7 -16 15 -16 8 0 15 7 15 15 0 11 12 15 45 15 33 0 45
-4 45 -15 0 -12 17 -15 90 -15 73 0 90 -3 90 -15 0 -11 11 -15 43 -15 34 0 50
6 73 28 16 16 41 37 56 46 15 10 30 26 33 37 4 10 12 19 20 19 15 0 155 165
218 257 21 32 48 67 58 79 11 11 19 28 19 37 0 9 9 21 20 27 11 6 19 15 17 20
-1 5 6 15 15 22 9 7 18 20 20 28 2 8 10 20 18 27 8 6 15 20 15 30 0 10 5 17
11 16 6 -1 12 9 12 22 0 14 -4 25 -9 25 -5 0 -9 7 -9 15 0 12 -18 15 -105 15
-87 0 -105 3 -105 15 0 8 -7 15 -15 15 -8 0 -15 7 -15 15 0 8 -7 15 -15 15 -8
0 -15 -7 -15 -15 0 -8 -7 -15 -15 -15 -8 0 -15 7 -15 15 0 8 -7 15 -15 15 -8
0 -15 4 -15 9 0 10 48 21 90 21 16 0 30 6 32 13 3 8 38 15 99 19 252 20 269
22 269 38 0 6 -3 9 -7 9 -5 -1 -24 -1 -43 1 -29 1 -32 3 -15 10 11 5 34 9 52
9 34 1 76 42 51 50 -7 2 -24 12 -37 22 -30 24 -49 24 -74 2 -18 -17 -19 -17
-32 0 -10 14 -21 16 -56 11 -24 -4 -50 -11 -56 -17 -15 -11 -17 -47 -3 -47 6
0 10 -5 10 -10 0 -15 -167 -9 -204 7 -17 8 -48 23 -68 33 -45 24 -55 25 -76 4
-15 -15 -15 -17 1 -29 16 -12 16 -14 2 -28 -8 -9 -15 -20 -15 -26 0 -10 -7
-12 -51 -15 -9 -1 -22 -6 -30 -12 -35 -27 -39 -26 -25 13 7 21 11 44 8 51 -2
7 3 21 13 31 15 18 14 19 -27 23 -26 3 -49 0 -58 -7 -8 -7 -44 -16 -79 -19
-57 -7 -63 -6 -52 8 15 18 6 37 -14 29 -18 -6 -18 -3 -5 32 8 21 6 32 -12 55
-12 17 -30 30 -40 30 -10 0 -27 5 -37 12 -27 17 -90 -24 -98 -64 -5 -28 -8
-29 -39 -23 -28 5 -38 2 -58 -20 -13 -14 -26 -25 -30 -25 -3 0 -6 77 -6 170 0
110 4 170 10 170 6 0 13 -7 16 -15 4 -10 20 -15 50 -15 32 0 44 4 44 15 0 13
20 15 120 15 100 0 120 -2 120 -15 0 -8 7 -15 15 -15 8 0 15 7 15 15 0 11 12
15 45 15 33 0 45 -4 45 -15 0 -12 15 -15 75 -15 60 0 75 -3 75 -15 0 -11 12
-15 45 -15 33 0 45 -4 45 -15 0 -10 10 -15 30 -15 20 0 30 -5 30 -15 0 -12 13
-15 60 -15 47 0 60 3 60 15 0 12 17 15 90 15 73 0 90 3 90 15 0 13 23 15 150
15 113 0 150 -3 150 -12 0 -14 20 17 45 70 8 17 20 32 25 32 6 0 10 13 10 29
0 16 7 34 15 41 8 7 15 25 15 41 0 20 4 27 14 23 8 -3 16 4 20 18 9 36 8 38
-26 40 -27 1 -25 2 12 7 50 7 51 8 97 128 14 38 28 85 30 106 3 20 9 37 14 37
4 0 13 19 19 43 6 23 17 57 25 75 8 18 15 44 15 58 0 13 6 35 14 47 18 29 52
140 87 285 7 28 8 62 1 98 -5 30 -5 57 -1 60 5 3 9 13 8 22 0 14 -2 13 -9 -3
-7 -16 -9 -13 -9 18 -1 26 -5 37 -16 37 -8 0 -15 5 -15 10 0 6 6 10 13 10 8 0
7 4 -3 10 -21 13 -31 12 -29 -3 1 -6 1 -30 0 -52 -1 -27 -4 -36 -10 -26 -5 7
-6 31 -3 53 4 35 2 40 -13 37 -21 -5 -28 -65 -13 -114 12 -36 -2 -176 -17
-176 -5 0 -11 9 -13 21 -3 15 -10 20 -28 17 -14 -2 -30 -10 -35 -18 -6 -10 -9
-7 -9 14 0 20 -5 27 -20 27 -11 0 -20 5 -20 10 0 6 -16 10 -35 10 -25 0 -35
-4 -35 -15 0 -9 -7 -18 -15 -21 -10 -4 -15 -19 -15 -43 0 -34 -14 -61 -32 -61
-4 0 -8 28 -10 62 -3 54 -6 63 -23 67 -11 2 -23 7 -26 12 -3 6 -18 3 -35 -6
-16 -8 -40 -15 -54 -15 -27 0 -53 -42 -50 -77 1 -10 2 -26 1 -36 -1 -16 -3
-16 -24 -2 -13 8 -27 12 -30 8 -4 -3 -7 -1 -7 5 0 7 -7 12 -15 12 -15 0 -18
-21 -17 -92 1 -27 -1 -28 -50 -28 -40 0 -49 3 -44 15 3 8 1 15 -5 15 -6 0 -7
5 -4 10 3 6 -1 17 -9 26 -21 20 -21 74 -1 74 8 0 15 8 15 17 0 15 2 14 15 -3
14 -19 14 -18 15 4 0 13 6 22 15 22 19 0 19 9 1 29 -17 19 -7 88 13 83 7 -1 6
7 -5 23 -9 14 -20 25 -25 25 -5 0 -9 9 -9 19 0 10 -7 21 -15 25 -11 4 -14 18
-12 53 2 26 0 62 -3 78 l-7 30 -11 -28 c-7 -16 -12 -74 -13 -130 -1 -127 -16
-249 -23 -184 0 6 -7 13 -13 13 -7 1 -18 2 -24 3 -18 2 1 21 22 21 10 0 19 6
19 14 0 23 -18 28 -29 9 -10 -17 -10 -17 -11 0 0 9 -4 17 -10 17 -5 0 -10 -25
-10 -55 l0 -55 36 0 c21 0 33 -4 29 -10 -3 -5 -19 -10 -36 -10 -20 0 -29 -5
-29 -16 0 -10 6 -14 15 -10 25 9 19 -49 -7 -68 l-23 -15 24 -21 c13 -11 30
-20 38 -20 27 0 2 -19 -39 -31 -36 -9 -44 -8 -54 6 -10 13 -16 14 -33 5 -16
-8 -27 -7 -48 5 -24 14 -25 16 -5 12 12 -3 22 -1 22 4 0 5 11 7 24 3 21 -5 25
-1 31 25 5 24 12 31 31 31 15 0 24 6 24 15 0 15 -10 19 -42 16 -10 -1 -18 4
-18 13 0 9 -4 16 -10 16 -5 0 -10 7 -10 15 0 8 5 15 10 15 6 0 10 7 10 16 0
10 6 13 18 10 16 -5 18 1 19 49 0 32 -3 52 -9 49 -5 -3 -6 -19 -3 -35 6 -26 4
-29 -19 -29 -25 0 -26 3 -27 53 -1 28 -1 55 0 60 1 7 -21 11 -53 7 -14 -1 -18
3 -13 19 5 21 -7 29 -17 12 -3 -5 -7 -54 -8 -110 -3 -99 -3 -101 -26 -101 -21
0 -23 4 -18 28 3 15 3 21 0 15 -13 -30 -30 -11 -32 34 -2 50 -19 75 -51 78
-11 1 -29 12 -40 26 l-19 24 10 -48 c5 -26 7 -55 4 -64 -6 -14 -9 -13 -27 5
-11 12 -31 22 -44 22 -13 0 -26 4 -30 10 -3 5 -11 7 -18 5 -7 -3 -22 3 -34 13
-21 16 -22 26 -25 185 l-3 168 -35 27 c-51 38 -55 47 -52 107 l4 54 141 4 c78
1 436 3 794 3 423 0 656 3 663 10 5 5 13 49 16 97 7 87 7 87 -17 88 -17 1 -19
3 -6 6 11 3 17 14 17 34 0 16 5 29 11 29 8 0 9 21 3 73 -11 101 -9 198 4 237
17 47 15 228 -2 261 -13 26 -17 55 -32 237 -8 97 -16 105 -87 91 -61 -11 -67
-15 -67 -45 0 -14 4 -22 10 -19 6 4 10 -26 10 -84 0 -49 4 -91 10 -93 6 -2 6
-8 -1 -18 -8 -13 -11 -13 -20 3 -6 9 -14 15 -19 12 -5 -3 -11 -1 -15 5 -7 11
-45 14 -45 4 0 -4 13 -20 30 -35 16 -16 30 -41 32 -56 3 -26 0 -28 -49 -36
-29 -5 -53 -13 -53 -18 0 -5 -7 -9 -15 -9 -8 0 -15 7 -15 15 0 8 -6 15 -14 15
-9 0 -13 -13 -13 -41 0 -42 -15 -70 -27 -50 -4 5 -13 8 -21 4 -9 -3 -15 1 -15
11 0 9 7 16 15 16 28 0 15 28 -15 32 -37 6 -40 3 -40 -38 0 -29 -3 -32 -35
-36 -19 -2 -36 1 -39 7 -2 6 -4 67 -4 135 -1 129 -10 320 -17 355 -2 11 -15
26 -27 34 -22 13 -23 13 -5 -6 23 -27 26 -183 2 -183 -8 0 -15 7 -15 15 0 8
-4 15 -10 15 -5 0 -10 -7 -10 -15 0 -8 5 -15 10 -15 6 0 10 -20 10 -45 0 -25
-4 -45 -10 -45 -5 0 -10 -7 -10 -15 0 -8 5 -15 11 -15 7 0 9 -14 4 -42 -4 -24
-10 -74 -14 -113 l-6 -70 -8 68 c-5 37 -13 67 -18 67 -5 0 -9 -8 -10 -17 0
-10 -2 -31 -3 -46 -1 -16 2 -31 6 -33 4 -3 3 -16 -3 -31 -6 -18 -6 -30 2 -39
9 -11 5 -14 -24 -14 -23 0 -40 6 -47 18 -8 12 -13 13 -16 5 -7 -16 -40 -17
-49 -3 -4 6 -19 -5 -35 -25 -16 -20 -31 -31 -35 -26 -3 6 -12 8 -20 5 -8 -3
-28 2 -44 12 -27 16 -31 24 -31 61 0 32 -4 43 -15 43 -10 0 -15 -11 -16 -32
-1 -27 -2 -28 -6 -8 -6 37 -25 70 -40 70 -9 0 -13 -17 -13 -60 0 -45 -4 -60
-14 -60 -17 0 -27 50 -21 108 3 39 2 42 -21 42 -13 0 -33 9 -44 20 -14 14 -27
18 -50 14 -25 -5 -30 -11 -30 -35 0 -19 -5 -29 -15 -29 -10 0 -15 -10 -15 -30
0 -20 -5 -30 -15 -30 -10 0 -15 10 -15 30 0 20 -5 30 -15 30 -8 0 -15 -7 -15
-15 0 -8 -7 -15 -16 -15 -13 0 -15 13 -12 87 l3 87 -37 9 c-24 6 -49 5 -67 -1
-34 -12 -41 -8 -41 24 0 13 -10 30 -22 38 -17 13 -22 28 -25 78 -8 117 -45
148 -179 148 -49 0 -84 -4 -84 -10 0 -5 -6 -10 -14 -10 -9 0 -16 -17 -20 -45
-4 -25 -11 -45 -17 -45 -5 0 -9 20 -9 45 0 33 4 45 15 45 12 0 15 15 15 75 0
60 -3 75 -15 75 -8 0 -15 7 -15 15 0 8 7 15 15 15 10 0 15 10 15 30 0 27 -3
30 -30 30 -16 0 -30 5 -30 10 0 7 315 10 925 10 l925 0 0 22 c0 24 -12 95 -41
243 -10 55 -24 129 -30 165 -39 237 -95 453 -124 478 -8 7 -15 22 -15 32 0 11
-4 20 -9 20 -6 0 -11 24 -13 53 l-3 52 -50 3 c-75 5 -132 -7 -164 -33 -25 -22
-29 -33 -33 -95 -9 -120 -48 -122 -48 -2 0 34 -3 62 -7 62 -5 0 -21 -7 -37
-15 -19 -10 -33 -12 -45 -6 -14 9 -14 10 3 17 24 9 56 40 56 54 0 14 23 13 38
-2 9 -9 15 -9 24 0 7 7 22 12 35 12 14 0 23 6 23 15 0 13 12 14 79 9 l79 -7 3
40 c5 53 1 73 -16 67 -10 -4 -13 1 -9 20 5 27 -8 60 -33 84 -7 8 -11 22 -8 33
4 11 -1 25 -14 36 -12 10 -21 30 -21 46 0 15 -6 30 -13 33 -8 3 -14 17 -14 32
0 39 -160 360 -219 439 -13 17 -24 36 -24 41 0 16 -53 72 -68 72 -11 0 -12 3
-4 13 14 16 -11 57 -33 57 -9 0 -12 8 -10 22 5 22 -6 45 -43 86 -12 13 -22 27
-24 30 -2 4 -16 18 -31 32 l-29 25 3 -62 c2 -39 -2 -67 -11 -77 -18 -23 -25
-20 -27 12 -5 63 -16 133 -22 137 -4 2 -5 -12 -3 -31 4 -32 3 -34 -27 -34 -29
0 -31 -3 -31 -35 0 -19 -3 -35 -7 -35 -3 0 -20 15 -36 33 -25 27 -29 29 -24
10 3 -13 -2 -30 -13 -43 -20 -24 -40 -26 -40 -5 0 10 -10 15 -30 15 -19 0 -30
-5 -30 -14 0 -12 -28 -25 -54 -26 -4 0 -6 11 -4 24 4 19 1 23 -11 18 -9 -3
-20 -10 -24 -16 -4 -6 -5 1 -1 17 4 17 2 27 -5 27 -6 0 -11 6 -11 14 0 12 -21
14 -106 14 -58 0 -109 3 -112 7 -4 4 -8 75 -8 158 -2 210 -8 247 -48 286 -32
31 -34 31 -83 21 -44 -10 -50 -14 -45 -32 5 -20 2 -21 -39 -16 -24 3 -38 4
-31 1 6 -3 12 -11 12 -19 0 -8 7 -14 15 -14 10 0 15 -10 15 -30 0 -28 -3 -30
-35 -30 -26 0 -33 3 -29 15 4 9 0 15 -10 15 -11 0 -16 -9 -16 -30 0 -27 3 -30
30 -30 20 0 30 -5 30 -15 0 -20 -25 -19 -61 2 -27 16 -29 22 -30 83 -1 36 -1
68 -1 71 1 4 -8 9 -18 12 -11 3 -20 1 -20 -4 0 -5 6 -9 13 -9 6 0 4 -5 -6 -11
-10 -6 -20 -9 -22 -7 -2 2 -5 57 -6 123 l-2 120 280 0 c155 0 284 3 287 6 9 8
-282 307 -326 335 -45 29 -136 54 -194 54 -51 0 -54 6 -54 111 l0 79 -75 57
c-153 118 -205 153 -229 153 -14 0 -29 6 -33 13 -12 19 -73 54 -109 61 -17 4
-42 2 -56 -3 -27 -10 -107 8 -135 30 -9 8 -37 10 -81 6 -45 -4 -61 -2 -47 4
18 8 17 9 -5 5 -14 -3 -50 -8 -80 -12 -30 -4 -60 -11 -67 -16 -21 -17 -84 -22
-215 -20 -71 2 -88 5 -88 17 0 10 -10 15 -31 15 -25 0 -30 -4 -27 -17 4 -15
-3 -18 -44 -18 -39 0 -48 3 -48 17 0 10 -7 18 -15 18 -8 0 -15 -7 -15 -15 0
-8 -6 -15 -14 -15 -7 0 -16 -9 -19 -21 -5 -20 -10 -21 -67 -14 -41 5 -65 3
-74 -5 -19 -15 -96 5 -96 25 0 10 -10 15 -30 15 -20 0 -30 -5 -30 -15 0 -8 -7
-15 -15 -15 -8 0 -15 7 -15 15 0 22 -42 19 -73 -5 -23 -18 -38 -20 -196 -17
-134 1 -170 -1 -166 -10 2 -8 -4 -13 -15 -13 -18 0 -20 7 -20 90 l0 90 40 0
c29 0 40 4 40 15 0 8 7 15 15 15 13 0 15 20 15 120 0 100 3 120 15 120 8 0 15
7 15 15 0 8 7 15 15 15 10 0 15 10 15 30 0 20 5 30 15 30 8 0 15 7 15 15 0 8
7 15 15 15 8 0 15 7 15 15 0 10 10 15 30 15 20 0 30 5 30 15 0 8 7 15 15 15 8
0 15 7 15 15 0 8 7 15 15 15 8 0 15 7 15 15 0 8 7 15 15 15 8 0 15 6 15 14 0
8 2 21 5 28 4 9 -4 14 -24 16 -40 3 -81 19 -81 32 0 5 -16 10 -35 10 -20 0
-46 7 -58 14 -12 8 -47 19 -77 25 -30 5 -75 16 -100 25 -25 8 -79 22 -120 30
-41 8 -109 22 -150 31 -41 9 -102 20 -135 25 -33 4 -94 13 -135 20 -225 33
-304 41 -500 50 -240 11 -454 11 -670 -1z m1708 -703 c-5 -6 -7 44 -6 110 l2
119 6 -110 c3 -60 2 -114 -2 -119z m-513 174 c8 -16 15 -38 15 -50 0 -34 20
-12 21 23 1 18 3 24 6 15 4 -15 16 -18 64 -18 46 0 59 -3 59 -15 0 -10 10 -15
30 -15 20 0 30 -5 30 -15 0 -10 10 -15 30 -15 20 0 30 -5 30 -15 0 -8 7 -15
15 -15 11 0 15 12 15 52 0 106 8 37 15 -129 7 -170 7 -173 -13 -173 -12 0 -23
-4 -26 -9 -3 -5 -15 -7 -25 -4 -11 3 -33 -2 -50 -10 -69 -34 -97 -1 -108 128
-6 78 -15 95 -46 92 -16 -1 -23 4 -25 21 -3 21 -6 20 -29 -15 -25 -37 -26 -40
-15 -122 15 -106 5 -126 -61 -122 -44 2 -44 2 -39 -28 4 -32 -14 -44 -24 -16
-5 11 -11 12 -24 5 -28 -15 -40 -12 -40 10 0 16 7 20 38 21 36 1 35 2 -11 9
-42 8 -337 18 -529 20 -54 0 -68 3 -68 15 0 18 -9 19 -24 2 -9 -11 -57 -11
-256 -2 -135 6 -283 10 -331 10 l-85 -1 0 100 c0 56 2 91 4 79 2 -13 10 -23
18 -23 8 0 14 -7 14 -15 0 -8 7 -15 15 -15 8 0 15 7 15 15 0 8 7 15 15 15 8 0
15 7 15 15 0 12 17 15 90 15 73 0 90 3 90 15 0 12 18 15 105 15 87 0 105 3
105 15 0 11 12 15 45 15 33 0 45 4 45 15 0 12 15 15 75 15 60 0 75 3 75 15 0
12 15 15 75 15 60 0 75 3 75 15 0 11 12 15 45 15 33 0 45 4 45 15 0 12 13 15
60 15 47 0 60 3 60 15 0 13 27 15 180 15 l179 0 16 -30z m-2779 -60 c46 0 64
-4 64 -13 0 -16 62 -47 95 -47 16 0 25 -6 25 -15 0 -8 7 -15 15 -15 8 0 15 -7
15 -15 0 -8 7 -15 15 -15 8 0 15 -7 15 -15 0 -8 6 -15 13 -15 6 0 21 -14 32
-30 11 -16 26 -30 33 -30 6 0 12 -7 12 -15 0 -8 7 -15 15 -15 16 0 21 -25 6
-34 -16 -10 27 -86 49 -86 16 0 20 -7 20 -35 0 -63 -14 -50 -100 96 -14 24
-53 71 -87 106 -160 165 -428 199 -618 78 -97 -62 -193 -197 -221 -310 -12
-49 -12 -49 -13 -13 -1 38 5 56 45 143 23 50 128 197 145 203 5 2 9 10 9 18 0
8 7 14 15 14 8 0 15 7 15 15 0 10 10 15 30 15 20 0 30 5 30 15 0 8 7 15 15 15
8 0 15 -7 15 -16 0 -13 6 -15 27 -9 15 3 30 11 33 15 5 9 132 19 158 13 8 -2
43 -3 78 -3z m-176 -105 c0 -8 -7 -15 -15 -15 -8 0 -15 7 -15 15 0 8 7 15 15
15 8 0 15 -7 15 -15z m-80 -29 c-8 -7 -27 -16 -43 -20 -27 -6 -27 -6 -10 13
10 11 29 20 43 20 21 1 22 -1 10 -13z m650 -16 c0 -27 -3 -30 -30 -30 -27 0
-30 3 -30 30 0 27 3 30 30 30 27 0 30 -3 30 -30z m600 15 c0 -8 -6 -15 -13
-15 -10 0 -12 -21 -9 -91 l5 -91 -39 6 c-22 4 -60 7 -86 8 l-48 2 0 86 0 86
65 -4 c55 -4 65 -2 65 12 0 11 9 16 30 16 20 0 30 -5 30 -15z m176 -150 l6
-40 -89 1 -88 0 -3 87 -3 86 78 3 78 3 7 -50 c4 -27 10 -68 14 -90z m-1071
119 c32 -21 32 -44 0 -44 -33 0 -95 31 -95 47 0 19 65 17 95 -3z m3192 -6 c-3
-8 -6 -5 -6 6 -1 11 2 17 5 13 3 -3 4 -12 1 -19z m-3647 -18 c0 -11 -7 -20
-15 -20 -27 0 -18 30 13 39 1 1 2 -8 2 -19z m28 -68 c-4 -21 -32 -36 -52 -29
-21 8 -21 45 2 49 28 6 53 -4 50 -20z m433 -55 c-15 -15 -131 -23 -131 -8 0 6
-7 11 -16 11 -8 0 -13 3 -11 8 3 4 42 6 87 4 60 -3 79 -7 71 -15z m158 -1 c24
-15 -4 -22 -71 -18 -52 3 -68 7 -68 19 0 12 12 14 63 11 34 -2 69 -8 76 -12z
m-616 -70 c-4 -28 -2 -35 13 -39 14 -3 12 -5 -7 -6 -30 -1 -41 21 -28 57 13
34 28 26 22 -12z m686 12 c12 -12 24 -38 27 -57 4 -20 12 -43 19 -51 19 -24
36 -137 25 -166 -6 -14 -10 -43 -10 -65 0 -28 -4 -39 -15 -39 -8 0 -15 -7 -15
-15 0 -10 -10 -15 -30 -15 -20 0 -30 -5 -30 -15 0 -11 -12 -15 -45 -15 -33 0
-45 -4 -45 -15 0 -11 -12 -15 -44 -15 -30 0 -46 -5 -50 -15 -4 -11 -22 -15
-76 -15 -56 0 -70 3 -70 15 0 10 -10 15 -30 15 -20 0 -30 5 -30 15 0 8 -7 15
-15 15 -8 0 -15 7 -15 15 0 10 -10 15 -28 15 -25 0 -31 6 -40 39 -7 21 -12 61
-12 88 l0 50 58 7 c31 4 91 11 134 16 61 7 93 18 165 55 48 26 93 51 98 55 6
4 25 11 43 15 38 8 41 26 12 73 -22 36 -11 43 19 10z m-623 -3 c8 -8 21 -12
29 -9 11 5 15 -2 15 -25 0 -27 -3 -31 -27 -31 -27 1 -27 1 -9 15 19 14 19 15
-6 15 -32 0 -52 22 -36 38 15 15 16 15 34 -3z m2797 3 c10 2 17 -3 17 -12 0
-20 -31 -24 -52 -7 -18 16 -14 36 5 24 7 -4 20 -6 30 -5z m-2913 -24 c0 -9 -9
-18 -20 -21 -11 -3 -17 -9 -14 -14 3 -5 -4 -9 -16 -9 -31 0 -88 -47 -101 -84
-12 -33 -58 -65 -60 -43 -3 26 3 49 22 93 18 40 22 44 33 29 11 -15 16 -16 37
-4 l24 13 -25 6 c-23 5 -22 7 20 28 54 26 100 29 100 6z m310 -4 c0 -11 -4
-20 -10 -20 -5 0 -10 9 -10 20 0 11 5 20 10 20 6 0 10 -9 10 -20z m255 -24 c0
-44 -8 -61 -24 -52 -12 8 -15 54 -5 81 11 28 29 10 29 -29z m2410 34 c3 -5 1
-10 -4 -10 -6 0 -11 5 -11 10 0 6 2 10 4 10 3 0 8 -4 11 -10z m-3291 -15 c8
-8 19 -15 25 -15 6 0 11 -5 11 -11 0 -6 8 -18 17 -27 16 -16 15 -17 -1 -20
-14 -3 -17 -11 -13 -35 5 -39 0 -57 -18 -57 -7 0 -15 -3 -17 -7 -6 -15 -66
-43 -90 -43 -40 0 -48 18 -49 110 -1 47 -3 77 -6 68 -7 -28 -21 -21 -15 7 2
14 8 23 12 20 4 -3 10 2 14 10 8 21 109 21 130 0z m763 9 c-3 -3 -12 -4 -19
-1 -8 3 -5 6 6 6 11 1 17 -2 13 -5z m180 -46 c-2 -13 -4 -5 -4 17 -1 22 1 32
4 23 2 -10 2 -28 0 -40z m-607 12 c0 -5 -9 -10 -21 -10 -11 0 -17 5 -14 10 3
6 13 10 21 10 8 0 14 -4 14 -10z m67 -82 c-3 -8 -6 -5 -6 6 -1 11 2 17 5 13 3
-3 4 -12 1 -19z m103 -15 c0 -42 -7 -40 -20 6 -7 24 -6 31 6 31 10 0 14 -12
14 -37z m190 23 c0 -3 -4 -8 -10 -11 -5 -3 -10 -1 -10 4 0 6 5 11 10 11 6 0
10 -2 10 -4z m30 -6 c0 -5 -4 -10 -10 -10 -5 0 -10 5 -10 10 0 6 5 10 10 10 6
0 10 -4 10 -10z m-130 -61 c0 -6 -4 -7 -10 -4 -5 3 -10 11 -10 16 0 6 5 7 10
4 6 -3 10 -11 10 -16z m1900 -658 c24 -7 24 -8 -9 -13 -18 -3 -56 -2 -85 1
-46 4 -48 6 -21 12 39 9 84 9 115 0z m129 -11 c-8 -4 -32 -5 -54 -1 l-40 5 45
6 c49 6 71 2 49 -10z m3451 -310 l0 -330 -39 0 c-22 0 -43 -4 -46 -10 -9 -14
-109 -12 -123 2 -7 7 -12 20 -12 30 0 14 -8 18 -37 19 -21 1 -45 2 -53 3 -17
1 -27 36 -11 36 21 0 11 27 -14 38 -21 10 -28 8 -52 -14 -25 -23 -25 -26 -10
-41 15 -16 18 -15 43 13 17 19 24 22 20 11 -3 -10 -6 -22 -6 -27 0 -12 -56
-23 -79 -15 -20 6 -23 37 -7 63 4 7 1 15 -9 19 -10 3 -21 0 -26 -8 -7 -11 -12
-12 -28 -2 -16 10 -30 9 -70 -3 -52 -15 -69 -28 -51 -39 5 -3 10 -19 10 -34 0
-25 -3 -28 -29 -26 -16 1 -37 9 -46 19 -21 21 -35 12 -35 -22 0 -15 -7 -36
-16 -47 -13 -17 -16 -18 -24 -5 -5 8 -10 18 -10 23 0 4 -7 7 -15 7 -8 0 -15 7
-15 15 0 9 -9 15 -24 15 -56 0 -29 54 33 66 41 9 28 22 -26 25 -29 2 -48 -2
-61 -14 -14 -13 -38 -18 -84 -19 -36 0 -70 2 -75 5 -6 4 -16 0 -23 -8 -9 -11
-17 -12 -38 -3 -16 6 -105 10 -220 10 -186 0 -195 -1 -218 -22 l-23 -23 6 35
c5 34 4 36 -31 42 -51 10 -74 0 -81 -34 -4 -17 -7 -30 -8 -31 -1 0 -29 -3 -62
-5 l-61 -5 0 36 c0 34 1 35 28 29 32 -6 60 10 52 31 -8 19 14 29 31 15 12 -10
18 -10 30 0 20 17 19 32 -6 64 -31 40 -63 49 -106 31 -19 -8 -46 -12 -59 -9
-18 5 -24 2 -24 -9 0 -13 -9 -15 -48 -10 -36 4 -51 1 -60 -10 -11 -13 -9 -19
8 -35 13 -12 17 -22 11 -26 -5 -4 -18 5 -27 19 -20 31 -50 32 -75 3 -23 -28
-24 -51 -3 -69 14 -11 19 -10 34 9 21 25 40 29 40 8 0 -8 11 -27 25 -42 31
-33 32 -44 4 -44 -12 0 -36 -7 -54 -16 -19 -8 -44 -14 -57 -12 l-23 3 -3 328
-2 327 1035 0 1035 0 0 -330z m-6482 313 l-287 -3 -4 -73 -3 -72 -2 78 -2 77
293 -2 292 -3 -287 -2z m2709 1 c-3 -3 -12 -4 -19 -1 -8 3 -5 6 6 6 11 1 17
-2 13 -5z m380 0 c-3 -3 -12 -4 -19 -1 -8 3 -5 6 6 6 11 1 17 -2 13 -5z m33
-24 c0 -5 -2 -10 -4 -10 -3 0 -8 5 -11 10 -3 6 -1 10 4 10 6 0 11 -4 11 -10z
m-466 -18 c9 2 27 -10 40 -27 20 -24 27 -28 37 -17 7 6 24 12 37 12 13 0 30 7
38 15 16 15 42 13 96 -7 21 -8 37 -6 68 6 51 20 50 20 51 -6 1 -22 1 -22 8 2
6 19 13 24 31 22 33 -4 37 -10 14 -26 -19 -14 -19 -15 0 -22 13 -5 33 0 56 12
28 16 43 18 69 12 22 -6 37 -5 47 3 10 8 18 8 27 1 11 -9 105 -34 173 -46 17
-3 36 0 43 7 8 8 11 7 11 -5 0 -13 9 -15 48 -11 70 7 75 9 62 32 -10 19 -8 19
21 9 22 -7 46 -7 87 1 69 13 128 3 126 -22 -1 -9 3 -17 8 -17 5 0 16 -7 25
-15 14 -14 13 -15 -13 -10 -20 5 -25 4 -15 -3 15 -11 6 -36 -10 -27 -13 9 -11
-19 2 -32 6 -6 18 -9 27 -5 12 4 14 1 9 -13 -5 -11 -1 -22 10 -31 14 -10 16
-15 6 -25 -18 -18 -16 -30 2 -23 12 5 14 0 9 -25 -4 -20 -3 -31 5 -31 13 0 13
1 12 115 -1 58 2 85 8 75 12 -21 32 -275 40 -507 3 -105 9 -194 13 -198 4 -4
33 -13 65 -20 401 -92 764 -247 1112 -477 73 -48 126 -79 136 -78 45 2 59 -1
45 -10 -12 -8 -12 -10 4 -16 25 -10 72 -54 68 -66 -1 -5 2 -7 8 -3 15 9 41
-14 33 -29 -3 -6 -3 -8 2 -4 11 10 37 -11 29 -23 -3 -5 -2 -9 3 -8 21 4 34 -2
27 -13 -4 -7 -3 -8 5 -4 7 5 45 -26 100 -83 57 -58 96 -91 110 -91 13 0 21 -6
21 -16 0 -13 7 -15 35 -11 19 3 35 2 35 -4 0 -5 -17 -9 -38 -9 -21 0 -42 -3
-45 -6 -4 -4 17 -34 45 -68 42 -51 56 -61 82 -61 29 0 31 -3 36 -40 3 -22 14
-52 24 -65 10 -14 16 -17 13 -8 -4 13 1 18 21 20 30 3 29 0 32 113 l2 70 13
-40 13 -40 1 36 c1 20 8 42 16 49 16 14 20 46 6 54 -5 3 -11 17 -13 31 -5 24
-3 25 38 25 32 0 44 -4 44 -15 0 -8 6 -15 14 -15 8 0 16 -14 19 -32 7 -50 -1
-61 -39 -54 l-32 7 -4 -66 c-1 -36 0 -65 5 -65 4 0 7 -7 7 -15 0 -8 -4 -15
-10 -15 -5 0 -10 5 -10 11 0 15 -43 7 -48 -10 -3 -9 2 -11 17 -6 15 5 21 2 21
-9 0 -9 7 -16 15 -16 8 0 15 -7 15 -16 0 -8 4 -13 9 -9 6 3 14 -3 20 -12 8
-14 10 -10 6 20 -2 20 0 37 5 37 5 0 11 10 13 23 2 12 5 -15 6 -61 1 -74 -1
-83 -16 -80 -10 2 -20 12 -23 22 -3 11 -10 21 -17 23 -7 3 -11 -20 -12 -66 -1
-68 -1 -69 29 -83 32 -14 38 -24 18 -30 -16 -6 -12 -77 5 -98 12 -14 25 -40
87 -173 26 -54 56 -79 120 -98 70 -20 73 -31 5 -27 -74 4 -75 0 -37 -107 l28
-80 77 -3 78 -3 -3 -511 c-2 -329 -7 -513 -13 -515 -29 -10 -35 -28 -49 -138
-9 -66 -22 -142 -30 -170 -15 -57 -25 -59 -83 -19 -54 36 -127 54 -222 54
-111 0 -250 -43 -307 -94 -76 -69 -79 -70 -208 -71 -117 -1 -124 -2 -204 -38
-79 -35 -186 -99 -198 -118 -7 -11 -44 -12 -44 -1 0 4 -21 21 -47 38 -25 16
-53 36 -61 43 -8 9 -41 17 -76 19 -33 2 -66 8 -71 13 -6 4 -17 4 -25 -1 -8 -6
-44 -10 -80 -10 -73 0 -113 -17 -209 -88 -24 -17 -48 -32 -53 -32 -6 0 -23 -9
-39 -21 l-29 -21 -38 30 c-169 133 -270 163 -452 133 -99 -16 -128 -27 -173
-66 -88 -75 -135 -129 -163 -186 -21 -45 -33 -59 -49 -59 -24 0 -59 34 -69 67
-9 29 -25 41 -88 64 -80 29 -157 25 -234 -11 -35 -17 -78 -43 -96 -58 -30 -25
-38 -27 -136 -28 l-104 0 7 30 c35 162 42 267 21 298 -9 12 -16 30 -16 39 0 9
-20 35 -44 57 -33 31 -57 43 -102 52 -73 15 -174 8 -190 -14 -6 -9 -15 -16
-21 -16 -26 0 -153 -174 -153 -211 0 -8 -24 -61 -53 -119 l-52 -105 -60 -13
c-33 -8 -74 -20 -92 -28 -17 -8 -40 -14 -52 -14 -11 0 -41 -5 -65 -12 -41 -11
-53 -9 -138 19 -90 31 -97 31 -248 29 -97 -2 -164 -8 -178 -15 -43 -23 -182
-42 -226 -30 -43 11 -107 39 -116 51 -3 4 -24 11 -45 16 l-40 8 1 50 c0 27 6
65 14 84 7 19 21 57 31 84 29 74 26 224 -4 302 -58 146 -146 237 -243 250 -30
3 -57 10 -60 15 -7 12 -121 12 -128 0 -3 -4 -26 -11 -50 -14 -43 -6 -66 -16
-202 -86 -108 -55 -237 -208 -327 -386 -19 -38 -44 -81 -54 -94 l-20 -24 -54
35 c-63 42 -127 70 -140 62 -5 -3 -10 5 -10 18 -1 19 -3 18 -9 -7 l-8 -30 -1
35 -1 35 45 -3 c35 -3 46 0 51 12 7 18 -32 239 -47 268 -5 9 -11 36 -15 60 -4
24 -14 49 -23 56 -14 11 -16 43 -16 255 0 133 3 303 6 377 l5 135 2 -132 c2
-135 17 -185 21 -71 1 34 4 65 7 70 3 4 0 8 -6 8 -6 0 -8 5 -3 13 20 33 24
174 5 194 -11 11 -11 13 0 13 16 0 58 53 58 73 0 8 9 24 20 37 11 13 20 33 20
46 0 13 4 25 9 28 14 9 73 184 69 208 -3 20 -13 25 -67 36 -36 7 -78 19 -94
27 -16 8 -33 13 -37 10 -11 -7 -20 20 -20 60 0 32 0 33 57 37 46 4 63 1 84
-14 23 -17 32 -18 84 -9 56 10 95 33 95 54 0 5 14 32 30 59 35 56 35 58 15 58
-15 0 -20 26 -9 54 5 13 9 14 20 5 11 -9 14 -8 14 5 0 9 7 19 15 22 11 4 15
22 16 58 0 28 6 80 13 116 l12 65 52 1 c28 1 59 7 68 15 15 12 0 15 -117 19
l-133 5 -9 32 c-9 29 -5 38 44 105 30 40 68 92 84 116 16 24 43 55 59 69 17
14 24 22 16 18 -23 -10 69 73 117 107 52 35 162 83 239 103 39 10 106 15 203
15 l145 0 96 64 c120 80 239 150 358 211 50 26 92 52 92 56 0 5 3 8 8 8 22 -4
42 3 65 24 21 18 27 32 27 64 0 22 6 45 13 50 13 11 173 73 188 73 5 0 9 -25
9 -55 0 -30 3 -55 6 -55 3 0 20 6 37 14 38 17 170 56 189 56 7 0 25 6 39 14
14 7 48 16 77 20 28 3 77 15 108 25 32 10 87 19 123 20 36 1 71 7 79 13 7 6
85 15 175 20 117 6 170 13 190 24 21 12 32 13 40 5 6 -6 25 -11 42 -11 21 0
26 3 16 9 -8 5 26 9 88 10 63 1 101 -2 101 -9 0 -13 60 -13 116 1 34 9 52 9
70 0 14 -6 105 -16 202 -21 98 -6 204 -15 237 -21 67 -11 246 -39 252 -39 7 0
3 142 -8 266 -6 71 -11 149 -11 173 0 30 -3 40 -9 30 -7 -11 -9 -11 -9 -1 0 7
-17 20 -37 28 -42 18 -82 7 -80 -22 1 -10 -6 -20 -15 -22 -19 -4 -25 22 -8 33
13 8 13 25 0 25 -6 0 -15 -11 -20 -25 -5 -14 -14 -25 -19 -25 -5 0 -18 -3 -28
-6 -15 -5 -16 -4 -3 5 13 10 12 13 -4 26 -11 8 -28 13 -38 9 -12 -3 -18 0 -18
9 0 8 -7 20 -15 27 -10 9 -15 9 -15 1 0 -6 -7 -11 -16 -11 -11 0 -14 -6 -9
-20 4 -12 2 -20 -5 -20 -6 0 -8 -4 -5 -10 3 -5 1 -10 -5 -10 -6 0 -10 6 -9 13
3 26 -2 37 -17 37 -10 0 -14 6 -10 15 3 8 2 15 -2 15 -4 0 -17 3 -29 6 -18 5
-23 2 -23 -12 0 -21 -28 -54 -47 -54 -16 0 -17 -14 -1 -40 11 -16 9 -22 -7
-35 -11 -8 -29 -13 -40 -10 -11 2 -40 -3 -64 -11 -78 -27 -81 -30 -81 -85 0
-48 -1 -50 -22 -43 -13 4 -26 11 -29 16 -3 5 -13 6 -22 2 -10 -3 -24 -1 -32 6
-22 18 -60 8 -63 -17 -3 -22 -32 -33 -32 -13 0 6 -3 9 -7 9 -21 -3 -33 2 -33
16 0 16 -40 21 -54 8 -9 -9 -14 -10 -56 -12 -25 -1 -30 -5 -30 -26 0 -20 -5
-25 -24 -25 -21 0 -24 5 -29 59 -4 32 -4 81 0 109 6 52 16 65 77 97 38 20 42
116 6 135 -18 10 -40 -4 -40 -26 0 -7 -15 -22 -33 -33 -54 -33 -75 -83 -69
-168 5 -83 -2 -123 -23 -123 -7 0 -20 12 -27 27 -17 35 -34 39 -41 11 -8 -27
-23 -15 -29 22 -4 23 -5 23 -15 -10 -10 -31 -11 -32 -13 -10 -1 14 -3 32 -4
40 -1 16 -43 16 -61 -1 -5 -5 -22 -9 -38 -9 -21 0 -30 6 -34 21 -5 18 -7 17
-22 -13 l-16 -33 -3 59 c-2 32 -1 65 2 72 10 27 26 13 27 -23 l1 -38 9 30 c5
17 10 40 11 53 1 12 7 21 13 19 13 -5 34 23 35 47 0 15 3 16 14 7 10 -9 15 -8
19 3 3 8 -2 17 -11 21 -16 6 -16 7 1 19 22 17 23 51 1 42 -11 -4 -18 1 -21 14
-6 23 -43 28 -43 6 0 -9 -9 -14 -20 -13 -12 1 -16 5 -11 10 5 5 7 25 4 45 -5
31 -4 34 11 29 12 -5 30 3 54 23 19 16 39 27 44 23 14 -8 58 38 58 61 0 15 3
17 9 8 4 -8 16 -12 25 -10z m310 -3 c-3 -5 -10 -7 -15 -3 -5 3 -7 10 -3 15 3
5 10 7 15 3 5 -3 7 -10 3 -15z m516 -14 c0 -10 -10 -15 -30 -15 -16 0 -30 4
-30 9 0 8 10 12 53 20 4 0 7 -6 7 -14z m590 -9 c0 -9 -7 -12 -20 -9 -11 3 -17
9 -14 14 8 14 34 10 34 -5z m-25 -46 c-3 -5 -10 -10 -16 -10 -5 0 -9 5 -9 10
0 6 7 10 16 10 8 0 12 -4 9 -10z m41 -40 c21 0 17 -18 -8 -31 -13 -7 -26 -17
-30 -23 -6 -8 -11 -7 -17 3 -5 8 -16 11 -24 8 -11 -4 -14 1 -13 19 1 16 7 24
19 24 9 0 17 -4 17 -10 0 -5 5 -10 10 -10 6 0 10 8 10 18 0 25 14 38 18 18 2
-9 10 -16 18 -16z m-1736 -31 c0 -5 -4 -9 -10 -9 -5 0 -10 7 -10 16 0 8 5 12
10 9 6 -3 10 -10 10 -16z m-770 -4 c0 -8 7 -15 15 -15 8 0 15 -7 15 -15 0 -8
7 -15 15 -15 8 0 15 -7 15 -15 0 -8 7 -15 15 -15 8 0 15 -7 15 -15 0 -8 7 -15
15 -15 8 0 15 -7 15 -15 0 -12 -15 -15 -75 -15 -60 0 -75 3 -75 15 0 10 -10
15 -30 15 -20 0 -30 5 -30 15 0 10 -10 15 -30 15 -27 0 -30 3 -30 30 l0 30 60
0 c47 0 60 3 60 15 0 8 7 15 15 15 8 0 15 -7 15 -15z m-299 -42 c1 -16 1 -32
0 -37 -1 -4 4 -14 10 -22 7 -8 8 -18 4 -22 -4 -4 -10 -1 -12 6 -3 6 -11 12
-19 12 -10 0 -14 13 -14 45 0 33 4 45 15 45 9 0 15 -10 16 -27z m1019 -17 c0
-16 -18 -31 -27 -22 -8 8 5 36 17 36 5 0 10 -6 10 -14z m-2770 -256 c0 -126
-4 -230 -8 -230 -5 0 -17 6 -27 14 -18 13 -19 25 -16 128 3 132 -7 140 -17 11
-6 -73 -10 -88 -23 -85 -9 1 -22 -5 -29 -13 -7 -8 -21 -15 -31 -15 -11 0 -19
-4 -19 -10 0 -5 -7 -10 -15 -10 -8 0 -15 4 -15 9 0 5 -9 13 -20 16 -19 6 -20
13 -17 131 l4 125 52 47 c47 42 155 112 174 112 4 0 7 -103 7 -230z m-543 194
c8 -22 -7 -33 -58 -40 -38 -5 -47 -3 -53 11 -10 28 13 45 61 45 30 0 45 -5 50
-16z m5127 -36 c3 -7 7 -66 10 -130 6 -113 5 -118 -14 -118 -18 0 -20 -7 -22
-62 l-2 -63 -3 60 c-4 51 -8 63 -31 82 -26 20 -27 25 -30 132 l-4 111 46 0
c29 0 48 -5 50 -12z m-1909 -8 c3 -5 -1 -10 -9 -10 -9 0 -16 5 -16 10 0 6 4
10 9 10 6 0 13 -4 16 -10z m-140 -66 c8 -74 -3 -294 -15 -294 -12 0 -20 139
-13 252 3 60 9 108 13 108 4 0 11 -30 15 -66z m-2358 -11 c-2 -16 -4 -5 -4 22
0 28 2 40 4 28 2 -13 2 -35 0 -50z m4171 0 c-2 -26 -9 -48 -15 -51 -7 -2 -13
3 -13 12 0 9 -7 16 -15 16 -22 0 -18 21 8 47 32 32 38 28 35 -24z m-1898 11
c11 -12 11 -18 -2 -30 -11 -11 -18 -12 -22 -5 -4 6 -2 11 5 11 10 0 10 3 1 12
-7 7 -12 16 -12 20 0 13 17 9 30 -8z m-2920 -9 c0 -8 -7 -15 -15 -15 -8 0 -15
7 -15 15 0 8 7 15 15 15 8 0 15 -7 15 -15z m150 0 c0 -11 -12 -15 -44 -15 -43
0 -63 10 -49 24 3 3 26 6 50 6 32 0 43 -4 43 -15z m4527 -17 c-3 -7 -5 -2 -5
12 0 14 2 19 5 13 2 -7 2 -19 0 -25z m44 9 c-1 -12 -15 -9 -19 4 -3 6 1 10 8
8 6 -3 11 -8 11 -12z m-3261 -28 c0 -12 -29 -24 -37 -16 -3 4 -3 13 0 21 6 16
37 11 37 -5z m-52 -1 c-5 -15 -108 -24 -108 -9 0 14 19 19 68 20 31 1 42 -3
40 -11z m1082 -23 c0 -10 -10 -15 -30 -15 -20 0 -30 5 -30 15 0 10 10 15 30
15 20 0 30 -5 30 -15z m-1436 -4 c9 -14 -4 -41 -20 -41 -8 0 -14 8 -14 18 0
29 22 43 34 23z m-1004 -61 c0 -49 -1 -50 -29 -50 -40 0 -49 -30 -21 -70 17
-24 18 -30 6 -30 -8 0 -21 -2 -28 -5 -11 -4 -15 3 -15 27 -1 18 -5 59 -8 90
-4 32 -5 63 -2 71 3 8 23 14 51 16 l46 2 0 -51z m130 5 c0 -28 -5 -47 -15 -52
-8 -5 -16 -20 -18 -33 -3 -19 -10 -25 -30 -25 -25 -1 -27 2 -27 46 0 25 3 61
6 78 6 28 10 31 45 31 l39 0 0 -45z m2394 30 c-4 -8 -1 -15 5 -15 6 0 11 5 11
10 0 6 11 10 24 10 14 0 28 -4 31 -10 3 -5 14 -10 24 -10 20 0 31 -35 31 -98
0 -48 -50 -97 -88 -87 -15 3 -43 9 -62 12 -19 3 -40 10 -47 15 -7 6 -19 5 -32
-2 -13 -6 -41 -8 -71 -4 -41 5 -54 3 -70 -11 -20 -18 -20 -17 -20 18 0 21 -4
37 -10 37 -5 0 -10 -6 -10 -14 0 -9 -7 -12 -21 -9 -18 5 -38 -1 -91 -28 -34
-17 -38 -10 -38 72 l0 80 33 13 c17 8 49 17 70 20 33 6 38 4 46 -16 l8 -23 7
22 c7 21 14 23 124 26 64 1 125 4 134 5 12 1 15 -3 12 -13z m-2912 -27 c17 -6
0 -28 -22 -28 -24 0 -33 15 -25 40 5 17 8 18 21 6 7 -8 19 -16 26 -18z m11 25
c-7 -2 -19 -2 -25 0 -7 3 -2 5 12 5 14 0 19 -2 13 -5z m1022 -18 c0 -15 -6
-19 -21 -17 -19 3 -21 -2 -21 -53 0 -53 2 -57 39 -87 22 -17 75 -43 118 -58
44 -15 101 -37 127 -50 26 -12 58 -26 71 -31 30 -12 19 -29 -19 -29 -28 0 -29
-2 -29 -45 0 -33 4 -45 15 -45 8 0 15 -5 15 -11 0 -7 -9 -9 -22 -5 -13 3 -26
6 -30 6 -5 0 -8 23 -8 50 0 49 -1 50 -30 50 -21 0 -30 5 -30 16 0 11 -6 15
-19 11 -14 -3 -17 0 -14 14 4 13 0 19 -11 19 -9 0 -16 -7 -16 -16 0 -12 -6
-15 -22 -9 -13 4 -51 14 -85 23 l-63 16 -2 50 c-4 139 -5 212 -2 217 2 3 16 6
31 5 21 -1 28 -6 28 -21z m-1144 -18 c-8 -8 -11 -7 -11 4 0 20 13 34 18 19 3
-7 -1 -17 -7 -23z m1562 26 c8 -7 -21 -43 -35 -43 -10 0 -11 34 -1 43 8 9 28
9 36 0z m740 -7 c15 0 17 -11 17 -73 0 -76 -5 -88 -20 -50 -8 21 -9 21 -9 1
-1 -30 -12 -36 -32 -18 -11 10 -19 12 -24 5 -3 -6 -17 -11 -30 -11 -16 0 -25
7 -29 26 -10 39 2 66 25 59 11 -4 19 -2 19 4 0 6 -9 11 -20 11 -16 0 -20 7
-20 31 l0 31 53 -8 c28 -4 60 -8 70 -8z m3752 4 c3 -5 1 -10 -4 -10 -6 0 -11
5 -11 10 0 6 2 10 4 10 3 0 8 -4 11 -10z m-5705 -16 c0 -11 -5 -14 -16 -10 -9
3 -21 6 -27 7 -7 0 -3 4 8 9 29 13 35 12 35 -6z m2109 6 l74 0 -5 -51 c-4 -34
-2 -46 4 -36 5 9 10 30 11 47 3 39 12 38 26 -2 16 -45 4 -130 -18 -126 -9 2
-17 13 -19 26 -3 17 -10 22 -33 22 -24 0 -29 -4 -29 -23 0 -28 17 -47 42 -47
10 0 18 -4 18 -10 0 -5 -4 -10 -8 -10 -16 0 -111 37 -125 48 -8 7 -21 10 -30
7 -22 -9 -35 39 -29 108 4 54 6 58 26 53 11 -3 54 -6 95 -6z m-2168 -32 c7
-18 19 -37 26 -41 7 -4 13 -20 13 -35 l0 -27 -21 33 c-12 17 -25 32 -29 32 -4
0 -10 16 -12 35 -5 44 6 45 23 3z m959 19 c0 -22 -10 -26 -41 -15 -40 14 -37
28 6 28 22 0 35 -5 35 -13z m487 -20 c2 -3 -9 -8 -26 -12 -31 -7 -43 -25 -17
-25 8 0 16 -7 20 -15 3 -8 17 -15 31 -15 18 0 25 -5 25 -19 0 -23 -20 -28 -79
-21 -44 5 -45 6 -57 54 -7 28 -11 53 -9 56 5 8 104 5 112 -3z m53 3 c0 -5 -5
-10 -11 -10 -5 0 -7 5 -4 10 3 6 8 10 11 10 2 0 4 -4 4 -10z m2135 -11 c4 -12
2 -26 -4 -32 -13 -13 -16 -10 -25 26 -8 33 19 39 29 6z m2105 -9 c0 -4 -11
-10 -24 -12 -18 -4 -26 0 -29 13 -3 10 -3 20 0 23 7 6 53 -15 53 -24z m-5683
-6 c-9 -9 -28 6 -21 18 4 6 10 6 17 -1 6 -6 8 -13 4 -17z m1093 -11 c0 -7 -6
-13 -14 -13 -8 0 -17 -8 -19 -17 -3 -10 -5 1 -6 25 -1 40 0 41 19 30 11 -7 20
-18 20 -25z m64 -37 c1 -26 -2 -50 -8 -53 -5 -3 0 -13 10 -21 10 -8 15 -12 9
-10 -5 2 -25 10 -42 17 -32 12 -47 34 -20 29 7 -2 13 10 15 32 6 77 33 82 36
6z m430 28 c25 -37 18 -70 -14 -66 -33 5 -32 3 -24 51 8 48 15 51 38 15z m216
6 c0 -5 -4 -10 -10 -10 -5 0 -10 5 -10 10 0 6 5 10 10 10 6 0 10 -4 10 -10z
m3015 0 c3 -5 -1 -10 -9 -10 -9 0 -16 5 -16 10 0 6 4 10 9 10 6 0 13 -4 16
-10z m45 -6 c0 -17 -22 -14 -28 4 -2 7 3 12 12 12 9 0 16 -7 16 -16z m-4000
-19 c0 -8 -7 -15 -15 -15 -16 0 -20 12 -8 23 11 12 23 8 23 -8z m170 -6 c0
-14 -26 -11 -39 5 -9 11 -6 12 14 8 14 -2 25 -8 25 -13z m623 -6 c-12 -2 -24
-12 -26 -21 -3 -12 -5 -10 -6 6 -1 18 4 22 27 21 22 -1 23 -2 5 -6z m2586 -19
c-18 -22 -64 -44 -94 -44 -16 0 -25 -6 -25 -15 0 -8 -7 -15 -15 -15 -8 0 -15
6 -15 14 0 12 -14 13 -75 9 -63 -5 -75 -3 -75 9 0 15 29 28 60 27 8 0 4 -5
-10 -12 l-25 -11 29 -4 c16 -2 32 1 35 6 3 5 44 15 91 22 47 7 89 17 95 22 5
4 15 8 23 8 12 0 12 -3 1 -16z m-3218 -57 c-8 -8 -11 -4 -11 14 0 33 14 47 18
19 2 -12 -1 -27 -7 -33z m2369 33 c0 -5 -4 -10 -9 -10 -6 0 -13 5 -16 10 -3 6
1 10 9 10 9 0 16 -4 16 -10z m-1923 -52 c-2 -13 -4 -5 -4 17 -1 22 1 32 4 23
2 -10 2 -28 0 -40z m2313 36 c0 -8 -5 -12 -10 -9 -6 4 -8 11 -5 16 9 14 15 11
15 -7z m-285 -4 c3 -5 1 -10 -4 -10 -6 0 -11 5 -11 10 0 6 2 10 4 10 3 0 8 -4
11 -10z m153 -7 c-10 -2 -26 -2 -35 0 -10 3 -2 5 17 5 19 0 27 -2 18 -5z
m-3291 -16 c-3 -7 4 -19 14 -25 12 -8 19 -24 19 -42 0 -28 -3 -30 -35 -30 -34
0 -35 1 -35 39 0 50 8 71 27 71 8 0 13 -6 10 -13z m2008 -7 c-3 -5 -12 -10
-18 -10 -7 0 -6 4 3 10 19 12 23 12 15 0z m1415 0 c0 -5 -4 -10 -10 -10 -5 0
-10 5 -10 10 0 6 5 10 10 10 6 0 10 -4 10 -10z m4670 6 c0 -3 -4 -8 -10 -11
-5 -3 -10 -1 -10 4 0 6 5 11 10 11 6 0 10 -2 10 -4z m-6000 -26 c12 -8 11 -10
-7 -10 -13 0 -23 5 -23 10 0 13 11 13 30 0z m110 0 c0 -5 -9 -10 -21 -10 -11
0 -17 5 -14 10 3 6 13 10 21 10 8 0 14 -4 14 -10z m-425 -10 c-3 -5 -17 -10
-29 -10 -39 0 -86 -12 -86 -22 0 -5 16 -16 35 -24 20 -8 33 -18 30 -23 -2 -5
2 -11 10 -15 8 -3 15 -17 15 -31 0 -23 4 -25 45 -25 33 0 45 -4 45 -15 0 -12
-17 -15 -90 -15 -73 0 -90 -3 -90 -15 0 -12 -15 -15 -75 -15 -60 0 -75 3 -75
15 0 8 -7 15 -15 15 -8 0 -15 6 -15 13 0 8 -4 7 -10 -3 -7 -10 -10 13 -10 74
0 80 2 88 18 81 38 -15 74 -17 95 -6 38 20 213 39 202 21z m140 -9 c-3 -6 -11
-11 -17 -11 -6 0 -6 6 2 15 14 17 26 13 15 -4z m-2828 -13 c-3 -8 -6 -5 -6 6
-1 11 2 17 5 13 3 -3 4 -12 1 -19z m3053 18 c0 -11 -19 -15 -25 -6 -3 5 1 10
9 10 9 0 16 -2 16 -4z m-2430 -51 c0 -25 -4 -35 -16 -35 -11 0 -14 5 -10 16 3
9 6 24 6 35 0 10 5 19 10 19 6 0 10 -16 10 -35z m8438 14 c-18 -7 -33 -7 -45
0 -14 8 -9 10 27 10 42 -1 43 -1 18 -10z m-7118 -34 c0 -19 -9 -19 -34 0 -19
14 -19 15 7 15 17 0 27 -5 27 -15z m-1123 -10 c0 -15 -25 -27 -60 -30 -14 -1
-12 4 10 21 33 27 50 30 50 9z m8383 -9 c0 -2 -7 -6 -15 -10 -8 -3 -15 -1 -15
4 0 6 7 10 15 10 8 0 15 -2 15 -4z m-60 -16 c0 -5 -7 -10 -16 -10 -8 0 -12 5
-9 10 3 6 10 10 16 10 5 0 9 -4 9 -10z m-8885 -8 c6 -4 9 -14 9 -22 -1 -8 -2
-34 -3 -57 -1 -30 -5 -43 -15 -43 -8 0 -16 -6 -19 -12 -9 -26 -42 7 -45 46 -6
69 34 117 73 88z m805 -8 c0 -2 -7 -4 -15 -4 -8 0 -15 4 -15 10 0 5 7 7 15 4
8 -4 15 -8 15 -10z m-346 -11 c-10 -7 -23 -13 -29 -13 -16 0 -34 -38 -37 -80
-3 -32 -6 -35 -37 -38 -30 -3 -33 -1 -23 11 7 8 17 41 23 74 l10 59 55 0 c48
0 53 -2 38 -13z m644 -67 c26 -14 37 -15 48 -5 11 9 14 8 14 -9 0 -30 10 -52
25 -52 7 0 15 -9 18 -20 11 -44 -50 -14 -66 33 -5 12 -17 17 -44 17 -46 0 -58
8 -66 41 -8 32 1 43 22 25 9 -7 31 -21 49 -30z m-308 4 c4 -18 14 -26 35 -30
18 -3 30 -11 30 -20 0 -20 -115 -24 -140 -6 -16 11 -16 14 -2 28 11 11 13 18
5 26 -17 17 2 33 35 30 24 -2 33 -9 37 -28z m8137 4 c-3 -3 -12 -4 -19 -1 -8
3 -5 6 6 6 11 1 17 -2 13 -5z m-7514 -481 c-7 -2 -19 -2 -25 0 -7 3 -2 5 12 5
14 0 19 -2 13 -5z m105 0 c-10 -2 -28 -2 -40 0 -13 2 -5 4 17 4 22 1 32 -1 23
-4z m147 -24 c-27 -17 -80 -61 -118 -98 -70 -67 -197 -217 -197 -233 0 -4 -4
-8 -9 -8 -21 0 64 120 137 194 73 74 204 176 226 176 5 0 -12 -14 -39 -31z
m-339 -18 c22 -18 23 -19 5 -35 -22 -20 -45 -21 -61 -1 -10 13 -10 19 5 35 22
24 21 24 51 1z m8022 -139 c3 -16 -2 -22 -16 -22 -21 0 -36 25 -26 41 10 17
39 5 42 -19z m-465 -94 c4 -12 2 -27 -4 -34 -6 -8 -5 -13 6 -18 8 -3 15 -13
15 -21 0 -10 5 -13 12 -9 8 5 10 -57 5 -256 -6 -216 -10 -267 -22 -279 -13
-14 -15 -12 -15 12 0 15 -5 27 -11 27 -11 0 -48 40 -49 53 0 4 7 7 15 7 8 0
15 6 15 14 0 8 6 16 14 19 14 6 27 85 15 93 -4 2 -14 -2 -21 -10 -12 -12 -14
-8 -13 28 1 56 -3 66 -31 66 -20 0 -24 5 -24 30 0 27 -3 30 -32 29 -51 -2 -85
-13 -70 -23 10 -6 13 -27 11 -70 -3 -57 -1 -63 29 -96 18 -19 32 -37 32 -41 0
-14 -40 -16 -58 -3 -19 13 -48 21 -79 23 -9 1 -13 20 -13 61 0 48 -3 60 -16
60 -8 0 -12 5 -9 11 4 6 -2 13 -14 16 -12 3 -21 12 -21 19 0 8 -7 14 -16 14
-9 0 -14 8 -13 18 1 9 1 43 0 75 -1 43 -5 57 -16 57 -8 0 -15 7 -15 15 0 8 7
15 15 15 8 0 15 -7 15 -15 0 -8 5 -15 10 -15 6 0 10 -13 10 -29 0 -17 5 -33
10 -36 6 -3 10 0 10 8 0 30 -22 133 -31 142 -18 19 -9 35 21 35 20 0 30 5 30
15 0 13 23 15 149 15 145 0 149 -1 154 -22z m-823 -83 c0 -8 -6 -15 -14 -15
-17 0 -28 14 -19 24 12 12 33 6 33 -9z m1556 -60 c44 -41 28 -54 -63 -49 -98
6 -105 9 -101 36 2 18 11 24 43 29 76 12 93 9 121 -16z m-1876 -30 c0 -8 7
-15 15 -15 10 0 15 -10 15 -27 l1 -28 19 24 20 23 0 -126 c0 -88 -3 -125 -11
-121 -6 4 -8 14 -4 22 6 17 -13 133 -25 146 -13 15 -20 -100 -14 -216 5 -90 4
-116 -6 -122 -9 -5 -15 -4 -18 4 -4 11 -6 11 -14 0 -6 -9 -7 4 -3 36 3 28 8
73 11 101 l6 51 -64 7 c-34 4 -73 10 -85 13 -25 6 -32 33 -9 33 8 0 16 10 18
23 3 20 9 22 65 25 68 3 78 10 88 65 l7 37 -108 0 c-66 0 -104 4 -95 9 7 5 11
13 8 18 -3 5 10 7 29 5 26 -3 34 -1 34 12 0 13 12 16 60 16 47 0 60 -3 60 -15z
m-6490 -20 c0 -8 -7 -15 -15 -15 -8 0 -15 7 -15 15 0 8 7 15 15 15 8 0 15 -7
15 -15z m-213 -57 c-3 -8 -6 -5 -6 6 -1 11 2 17 5 13 3 -3 4 -12 1 -19z m6526
-5 c-7 -2 -19 -2 -25 0 -7 3 -2 5 12 5 14 0 19 -2 13 -5z m2066 -2 c11 -7 10
-10 -5 -14 -16 -4 -33 -4 -86 2 -5 1 -8 6 -8 11 0 12 80 13 99 1z m-9830 -45
c7 -13 11 -32 9 -42 -4 -15 -7 -12 -13 11 -5 17 -15 35 -24 42 -15 11 -15 12
0 13 9 0 21 -11 28 -24z m8336 4 c3 -5 -1 -10 -9 -10 -9 0 -16 5 -16 10 0 6 4
10 9 10 6 0 13 -4 16 -10z m625 -25 c0 -8 -7 -15 -15 -15 -8 0 -15 7 -15 15 0
8 7 15 15 15 8 0 15 -7 15 -15z m-700 -9 c0 -7 -7 -19 -16 -27 -13 -10 -17
-10 -24 1 -10 17 5 40 26 40 8 0 14 -6 14 -14z m490 -21 c0 -8 -4 -15 -10 -15
-5 0 -10 7 -10 15 0 8 5 15 10 15 6 0 10 -7 10 -15z m223 -22 c-7 -2 -21 -2
-30 0 -10 3 -4 5 12 5 17 0 24 -2 18 -5z m-223 -37 c0 -7 -9 -16 -20 -19 -15
-4 -20 0 -20 14 0 12 7 19 20 19 11 0 20 -6 20 -14z m387 -8 c-3 -8 -6 -5 -6
6 -1 11 2 17 5 13 3 -3 4 -12 1 -19z m573 -42 c0 -13 -5 -26 -10 -28 -21 -7
-21 -58 0 -88 11 -15 20 -35 20 -43 0 -21 -44 -54 -89 -67 -54 -16 -210 -40
-263 -40 -47 0 -48 1 -48 30 0 17 2 30 4 30 16 0 115 22 131 29 11 5 40 14 65
21 25 7 57 21 71 31 15 10 38 23 51 28 19 7 27 20 32 48 10 56 16 73 27 73 5
0 9 -11 9 -24z m-555 -53 c-10 -42 -25 -52 -25 -17 0 32 6 44 23 44 5 0 6 -12
2 -27z m-385 -48 c0 -8 -4 -15 -10 -15 -5 0 -10 7 -10 15 0 8 5 15 10 15 6 0
10 -7 10 -15z m248 -18 c2 -15 10 -27 18 -27 8 0 14 -7 14 -15 0 -8 7 -15 15
-15 8 0 15 -7 15 -15 0 -8 -7 -15 -15 -15 -8 0 -15 -7 -15 -15 0 -8 -7 -15
-15 -15 -8 0 -15 -7 -15 -15 0 -12 -17 -15 -90 -15 l-90 0 0 75 c0 60 3 75 15
75 8 0 15 -7 15 -15 0 -10 10 -15 30 -15 20 0 30 5 30 15 0 15 10 19 43 16 10
-2 17 5 17 14 0 27 25 11 28 -18z m-808 -60 c0 -10 -7 -25 -15 -33 -13 -14
-15 -10 -15 37 0 49 1 51 15 33 8 -10 15 -27 15 -37z m-8880 24 c0 -5 -9 -11
-19 -14 -14 -3 -18 -1 -14 9 6 15 33 19 33 5z m9807 -43 c-3 -7 -5 -2 -5 12 0
14 2 19 5 13 2 -7 2 -19 0 -25z m591 -74 c-2 -32 -7 -40 -25 -42 -27 -4 -27
-2 -9 43 8 19 13 35 10 35 -3 0 -2 5 2 11 12 20 25 -8 22 -47z m-441 24 c-3
-8 -6 -5 -6 6 -1 11 2 17 5 13 3 -3 4 -12 1 -19z m-8234 -95 c-4 -33 -10 -43
-24 -43 -10 0 -21 5 -24 10 -10 16 5 50 21 50 8 0 14 10 14 22 0 14 4 18 9 13
6 -6 7 -29 4 -52z m7352 37 c3 -5 1 -10 -4 -10 -6 0 -11 5 -11 10 0 6 2 10 4
10 3 0 8 -4 11 -10z m-7350 -410 c3 -5 1 -10 -4 -10 -6 0 -11 5 -11 10 0 6 2
10 4 10 3 0 8 -4 11 -10z m182 -127 c-3 -10 -5 -4 -5 12 0 17 2 24 5 18 2 -7
2 -21 0 -30z m-181 -115 c5 -111 -1 -162 -16 -138 -5 8 -6 18 -4 22 3 4 -1 17
-9 29 -15 21 -12 59 4 59 5 0 9 32 9 72 0 106 12 75 16 -44z m181 15 c-2 -16
-4 -5 -4 22 0 28 2 40 4 28 2 -13 2 -35 0 -50z m6963 2 c0 -8 -4 -15 -10 -15
-5 0 -10 7 -10 15 0 8 5 15 10 15 6 0 10 -7 10 -15z m380 -291 c0 -8 -5 -12
-10 -9 -6 4 -8 11 -5 16 9 14 15 11 15 -7z m-8523 -16 c-3 -8 -6 -5 -6 6 -1
11 2 17 5 13 3 -3 4 -12 1 -19z m8520 -30 c-3 -8 -6 -5 -6 6 -1 11 2 17 5 13
3 -3 4 -12 1 -19z m93 -8 c0 -5 -4 -10 -10 -10 -5 0 -10 5 -10 10 0 6 5 10 10
10 6 0 10 -4 10 -10z m-8133 -62 c-2 -13 -4 -5 -4 17 -1 22 1 32 4 23 2 -10 2
-28 0 -40z m8058 41 c11 -16 1 -19 -13 -3 -7 8 -8 14 -3 14 5 0 13 -5 16 -11z
m-8095 -24 c0 -8 -7 -15 -15 -15 -8 0 -15 7 -15 15 0 8 7 15 15 15 8 0 15 -7
15 -15z m480 0 c0 -8 -7 -15 -15 -15 -8 0 -15 7 -15 15 0 8 7 15 15 15 8 0 15
-7 15 -15z m7690 11 c0 -3 -4 -8 -10 -11 -5 -3 -10 -1 -10 4 0 6 5 11 10 11 6
0 10 -2 10 -4z m-253 -43 c-3 -10 -5 -4 -5 12 0 17 2 24 5 18 2 -7 2 -21 0
-30z m-9190 -59 c-3 -3 -12 -4 -19 -1 -8 3 -5 6 6 6 11 1 17 -2 13 -5z m9683
-114 c0 -5 -2 -10 -4 -10 -3 0 -8 5 -11 10 -3 6 -1 10 4 10 6 0 11 -4 11 -10z
m814 -89 c3 -4 26 -11 52 -14 52 -5 64 -17 64 -64 0 -26 -4 -33 -20 -33 -11 0
-20 -6 -20 -13 0 -14 -35 -47 -50 -47 -6 0 -10 -7 -10 -15 0 -11 -12 -15 -45
-15 -33 0 -45 -4 -45 -15 0 -12 -13 -15 -60 -15 -47 0 -60 3 -60 15 0 8 -7 15
-15 15 -8 0 -15 -7 -15 -15 0 -8 -7 -15 -15 -15 -8 0 -15 -7 -15 -15 0 -8 -7
-15 -15 -15 -8 0 -15 7 -15 15 0 10 -10 15 -30 15 -20 0 -30 5 -30 15 0 8 -7
15 -15 15 -8 0 -15 7 -15 15 0 13 -23 15 -150 15 -127 0 -150 2 -150 15 0 10
-10 15 -30 15 -20 0 -30 -5 -30 -15 0 -8 -7 -15 -15 -15 -10 0 -15 10 -15 30
0 20 -5 30 -15 30 -8 0 -15 7 -15 15 0 8 -7 15 -15 15 -8 0 -15 -7 -15 -15 0
-10 -10 -15 -30 -15 -20 0 -30 5 -30 15 0 10 10 15 30 15 20 0 30 5 30 15 0
11 12 15 45 15 37 0 45 3 45 19 0 17 4 18 38 10 20 -4 72 -5 115 0 42 4 77 3
77 -1 0 -4 9 -8 20 -8 11 0 20 4 20 9 0 4 18 3 40 -3 30 -7 46 -7 59 1 12 7
23 8 35 1 10 -6 21 -6 25 -2 8 11 32 11 49 0 7 -4 18 -3 25 2 7 6 43 10 80 11
37 0 72 3 77 6 6 3 10 1 10 -4 0 -17 27 -13 34 4 6 17 22 20 30 6z m316 -36
c0 -8 -7 -15 -15 -15 -16 0 -20 12 -8 23 11 12 23 8 23 -8z m-65 -72 c-10 -66
-17 -46 -8 23 4 32 9 51 11 40 2 -10 1 -38 -3 -63z m-7670 -110 c22 -12 50
-32 62 -45 99 -106 89 -328 -24 -513 -132 -217 -276 -332 -526 -420 -47 -17
-84 -37 -93 -50 -7 -11 -29 -66 -48 -121 -19 -54 -48 -132 -64 -172 l-30 -73
31 -17 c26 -13 58 -17 157 -17 120 0 127 1 178 30 72 39 92 67 92 124 0 61 21
137 56 202 43 80 168 200 250 240 63 31 76 34 162 34 l93 0 40 -42 c30 -33 39
-50 39 -78 0 -19 3 -35 6 -35 3 0 28 19 54 43 113 102 241 140 333 99 47 -21
47 -21 90 -2 104 48 214 -3 192 -87 -3 -13 -39 -95 -80 -182 -67 -141 -89
-211 -68 -211 19 0 45 40 59 89 44 152 174 314 304 380 72 36 155 42 217 16
20 -9 40 -12 44 -8 4 5 21 40 37 78 168 390 184 419 241 435 82 23 143 2 168
-57 18 -44 14 -59 -47 -198 -54 -123 -208 -492 -250 -600 -35 -90 -44 -135
-27 -135 25 0 47 25 52 58 14 116 56 195 154 293 97 96 184 142 282 147 82 5
132 -16 163 -67 l21 -36 6 35 c13 80 89 171 159 190 88 24 166 -25 164 -103 0
-23 -2 -49 -5 -57 -3 -12 5 -14 42 -12 96 7 169 -36 169 -99 0 -12 -34 -96
-76 -185 -41 -90 -73 -168 -69 -174 4 -7 17 -3 35 10 15 11 36 20 47 20 11 0
26 15 38 37 21 38 67 73 98 73 43 0 75 -29 97 -87 29 -77 35 -83 87 -83 83 0
133 44 133 117 0 54 -22 77 -93 98 -65 19 -87 40 -94 92 -7 52 21 85 90 107
80 25 125 60 153 119 29 64 30 88 3 112 -19 19 -21 19 -56 0 -19 -11 -47 -35
-61 -55 -64 -87 -82 -100 -140 -100 -47 0 -57 4 -83 31 -47 50 -34 121 37 215
46 60 183 114 291 114 91 0 194 -53 230 -118 68 -123 34 -281 -82 -377 -25
-21 -44 -42 -43 -45 2 -4 24 -30 49 -58 l46 -51 17 67 c41 160 115 287 239
414 98 101 197 151 307 156 94 5 145 -17 190 -80 49 -67 32 -145 -37 -175 -35
-14 -38 -13 -99 17 -73 38 -95 36 -151 -13 -37 -32 -93 -103 -93 -118 0 -4 14
-3 31 3 41 14 147 5 188 -16 72 -37 118 -95 145 -179 8 -24 26 -12 26 17 0 29
38 141 77 227 61 134 167 260 258 307 40 21 68 27 142 30 81 4 98 2 135 -18
24 -12 58 -36 76 -53 36 -34 37 -34 21 11 -14 40 9 81 82 146 139 125 309 150
421 60 35 -28 68 -92 68 -132 0 -36 -48 -330 -55 -343 -3 -3 -9 -35 -15 -70
-5 -35 -23 -129 -39 -208 -26 -123 -31 -169 -18 -150 47 68 212 358 279 493
63 126 148 341 148 376 0 14 -7 35 -15 46 -8 10 -15 38 -15 61 0 58 29 77 105
71 42 -4 64 -12 93 -35 110 -88 95 -190 -83 -560 -120 -251 -334 -579 -474
-726 -84 -89 -168 -115 -246 -77 -87 42 -133 159 -120 305 9 108 40 294 64
385 94 358 103 400 83 400 -5 0 -38 -31 -73 -70 -46 -50 -74 -72 -98 -76 -28
-6 -32 -10 -26 -28 30 -94 37 -146 30 -225 -13 -175 -53 -299 -135 -424 -63
-98 -128 -160 -208 -199 -60 -30 -75 -33 -157 -33 -107 0 -153 14 -208 64 -54
49 -83 97 -102 172 -9 35 -18 65 -20 67 -1 1 -15 -23 -30 -55 -33 -67 -140
-180 -200 -210 -94 -48 -263 -55 -344 -14 -54 28 -119 105 -133 158 -6 24 -14
46 -18 48 -5 3 -19 -14 -33 -38 -59 -100 -172 -173 -290 -186 -127 -14 -212 8
-285 73 -22 20 -42 36 -45 36 -3 0 -25 -16 -49 -36 -61 -52 -119 -74 -189 -74
-75 0 -130 26 -165 80 -53 80 -43 163 36 323 27 53 45 97 40 97 -12 0 -46 -53
-90 -140 -51 -99 -96 -167 -148 -222 -93 -99 -177 -138 -299 -138 -79 0 -123
14 -186 57 -38 26 -40 26 -65 10 -57 -36 -128 -67 -154 -67 -41 0 -132 37
-158 65 -28 30 -41 31 -65 5 -10 -11 -42 -31 -71 -45 -90 -43 -189 -31 -263
30 l-31 26 -32 -24 c-46 -35 -104 -57 -150 -57 -44 0 -112 31 -127 57 -9 17
-16 15 -85 -19 -56 -28 -89 -38 -124 -38 -54 0 -125 29 -164 67 l-28 27 -22
-22 c-13 -11 -48 -32 -78 -46 -46 -21 -70 -26 -142 -26 -87 0 -119 8 -169 42
-31 21 -39 15 -39 -26 -1 -76 -75 -167 -163 -201 -37 -14 -66 -16 -149 -13
-114 6 -211 33 -331 94 -81 40 -88 41 -113 12 -23 -26 -163 -93 -224 -107
-159 -37 -315 12 -361 113 -79 174 96 315 393 316 59 0 69 3 82 23 16 23 106
251 106 267 0 5 -28 22 -62 39 -133 63 -198 150 -198 263 0 77 25 136 72 172
49 37 100 35 139 -3 25 -25 29 -37 29 -83 0 -66 24 -116 68 -142 40 -23 40
-23 78 79 81 213 223 463 315 554 67 66 164 131 227 152 76 25 200 21 257 -8z
m7018 -110 c-40 -2 -106 -2 -145 0 -40 1 -8 3 72 3 80 0 112 -2 73 -3z m705 0
c-15 -2 -42 -2 -60 0 -18 2 -6 4 27 4 33 0 48 -2 33 -4z m-2058 -153 c0 -33
-4 -60 -8 -60 -4 0 -18 17 -29 37 l-22 37 22 22 c12 12 25 22 30 23 4 1 7 -26
7 -59z m17 -122 c-3 -8 -6 -5 -6 6 -1 11 2 17 5 13 3 -3 4 -12 1 -19z m-8162
-98 c0 -8 -10 -16 -22 -18 -22 -3 -32 16 -16 32 12 11 38 2 38 -14z m548 -45
c-1 -5 -8 -14 -17 -20 -18 -11 -42 7 -31 25 8 13 51 9 48 -5z m-295 -42 c-2
-10 -10 -18 -18 -18 -8 0 -16 8 -18 18 -2 12 3 17 18 17 15 0 20 -5 18 -17z
m261 -87 c9 -10 9 -16 1 -21 -13 -8 -42 14 -34 26 8 13 20 11 33 -5z m91 -11
c0 -15 -43 -12 -48 3 -3 10 4 13 22 10 15 -2 26 -7 26 -13z m330 1 c0 -14 -21
-26 -46 -26 -17 0 -19 26 -1 33 24 10 47 7 47 -7z m-373 -77 c1 -11 -5 -19
-13 -19 -8 0 -14 5 -14 11 0 6 -9 8 -20 4 -14 -4 -20 -2 -20 8 0 20 7 24 38
19 19 -2 28 -10 29 -23z m-372 1 c21 -8 24 -14 19 -35 -4 -15 -2 -25 5 -25 12
0 15 -26 3 -33 -4 -3 -20 -3 -35 0 -20 4 -26 10 -22 22 2 9 -2 29 -10 45 -8
15 -15 30 -15 32 0 7 28 4 55 -6z m8385 -32 c0 -13 -3 -47 -6 -76 -6 -46 -8
-50 -20 -35 -16 22 -17 46 -3 96 11 41 29 50 29 15z m-8613 -200 c-1 -40 -3
-8 -3 72 0 80 2 112 3 73 2 -40 2 -106 0 -145z m-96 112 c-2 -48 -8 -70 -22
-83 -13 -12 -18 -26 -14 -38 4 -12 1 -21 -9 -25 -20 -8 -23 -84 -3 -84 14 0
47 -35 47 -50 0 -6 -7 -10 -15 -10 -10 0 -15 -10 -15 -30 0 -20 -5 -30 -15
-30 -8 0 -15 -7 -15 -15 0 -12 -13 -15 -59 -15 -39 0 -61 -4 -64 -12 -2 -7 -2
-1 0 15 3 20 0 27 -11 27 -12 0 -16 11 -16 44 0 24 -3 51 -6 60 -4 11 0 16 14
16 11 0 23 -6 25 -12 3 -7 6 17 6 53 1 48 -3 70 -14 79 -13 10 -15 9 -15 -9 0
-11 5 -21 10 -21 19 0 10 -49 -10 -60 -19 -10 -20 -8 -20 102 0 156 -1 154 73
164 34 5 82 7 107 4 l45 -5 -4 -65z m847 -22 c-2 -24 -7 -32 -20 -30 -25 4
-33 -18 -9 -25 13 -3 21 -13 21 -27 0 -16 -2 -18 -9 -7 -5 8 -14 10 -21 6 -8
-5 -18 -1 -25 9 -8 10 -29 18 -51 19 -22 1 -44 9 -51 17 -10 13 -17 10 -46
-20 -19 -19 -33 -38 -30 -42 10 -17 -8 -27 -31 -18 -15 5 -27 5 -33 -1 -7 -7
-13 5 -18 36 -3 26 -3 51 2 56 10 10 125 29 136 22 5 -3 21 0 37 7 16 7 53 16
82 20 29 4 57 8 61 9 5 0 7 -14 5 -31z m452 -8 c0 -5 -4 -10 -9 -10 -6 0 -13
5 -16 10 -3 6 1 10 9 10 9 0 16 -4 16 -10z m-390 -26 c0 -8 -4 -12 -10 -9 -5
3 -10 10 -10 16 0 5 5 9 10 9 6 0 10 -7 10 -16z m30 -33 c0 -28 -5 -53 -11
-56 -7 -5 -9 12 -7 49 4 69 18 74 18 7z m7760 18 c0 -18 -2 -19 -15 -9 -8 7
-15 16 -15 21 0 5 7 9 15 9 9 0 15 -9 15 -21z m-8228 -10 c47 -12 50 -29 6
-28 -44 0 -100 21 -106 38 -5 15 17 13 100 -10z m537 11 c25 -13 16 -56 -12
-64 -35 -9 -37 -8 -37 27 0 47 13 57 49 37z m138 -16 c5 -15 -47 -28 -60 -15
-5 5 -6 14 -3 20 8 13 58 9 63 -5z m182 -21 c7 -14 8 -29 4 -32 -4 -3 -8 -21
-9 -39 -1 -36 -23 -67 -31 -44 -3 6 -11 12 -19 12 -8 0 -32 11 -53 25 -21 14
-45 23 -53 20 -8 -3 -22 -32 -31 -63 -17 -58 -87 -176 -110 -185 -18 -7 -67 3
-67 14 0 5 22 20 49 33 61 32 85 76 75 141 -3 25 -3 56 0 71 6 24 9 25 60 19
35 -5 56 -3 60 4 4 6 18 11 30 11 13 0 34 9 47 20 31 25 34 25 48 -7z m-1101
-34 c-3 -32 -5 -34 -38 -33 -23 0 -35 5 -35 15 0 9 9 13 28 12 24 -2 27 1 27
29 0 23 3 29 11 21 6 -6 9 -26 7 -44z m9580 -1 c-4 -41 -23 -39 -23 2 0 18 5
30 13 30 9 0 12 -11 10 -32z m-10143 12 c3 -5 1 -10 -4 -10 -6 0 -11 5 -11 10
0 6 2 10 4 10 3 0 8 -4 11 -10z m35 0 c0 -5 -5 -10 -11 -10 -5 0 -7 5 -4 10 3
6 8 10 11 10 2 0 4 -4 4 -10z m10487 -52 c-3 -8 -6 -5 -6 6 -1 11 2 17 5 13 3
-3 4 -12 1 -19z m-9427 -9 c0 -6 -4 -7 -10 -4 -5 3 -10 11 -10 16 0 6 5 7 10
4 6 -3 10 -11 10 -16z m-1140 -15 c0 -8 -5 -12 -10 -9 -6 4 -8 11 -5 16 9 14
15 11 15 -7z m9697 2 c6 -5 -22 -13 -74 -20 -27 -3 -33 -1 -33 15 0 16 6 18
51 14 28 -2 53 -6 56 -9z m196 -66 c-3 -11 -7 -20 -8 -20 -1 0 -5 9 -8 20 -3
12 0 20 8 20 8 0 11 -8 8 -20z m178 7 c-6 -8 -8 -17 -4 -20 3 -4 -1 -7 -10 -7
-20 0 -22 11 -5 28 16 16 33 15 19 -1z m-418 -4 c-7 -2 -19 -2 -25 0 -7 3 -2
5 12 5 14 0 19 -2 13 -5z m-9067 -98 c4 -30 11 -45 21 -45 8 0 13 -6 11 -12
-7 -19 -51 -21 -92 -4 -34 14 -36 18 -36 59 l0 44 44 1 45 1 7 -44z m9484 5
c-14 -4 -38 -8 -55 -8 l-30 0 30 8 c17 4 41 8 55 8 l25 0 -25 -8z m-2098 -345
c14 -31 3 -45 -16 -20 -7 10 -18 15 -24 11 -16 -9 -15 7 0 22 18 18 27 15 40
-13z m-723 -24 c92 -76 169 -101 315 -101 l110 0 -27 -28 c-15 -15 -27 -31
-27 -35 0 -4 243 -7 540 -7 l540 0 -2 -292 -3 -291 -51 -2 c-28 -1 -56 -5 -62
-9 -7 -4 -12 -32 -12 -64 -1 -46 -3 -53 -11 -38 -6 10 -9 36 -6 57 10 73 -13
100 -51 62 -16 -16 -17 -16 -19 3 -10 104 -16 134 -24 134 -5 0 -9 -25 -9 -55
0 -45 -5 -61 -24 -82 -20 -21 -25 -37 -25 -81 0 -29 -1 -56 -3 -58 -2 -2 -14
-1 -26 3 -19 5 -22 12 -23 62 -1 31 -5 67 -9 81 l-8 25 -1 -27 c-1 -18 -7 -28
-16 -28 -8 0 -15 -6 -15 -12 0 -9 -4 -8 -10 2 -5 8 -10 54 -10 102 0 89 -5
104 -30 87 -12 -8 -12 -12 -2 -16 13 -5 17 -73 5 -73 -5 0 -6 -27 -5 -60 4
-57 -6 -77 -24 -49 -4 8 -9 7 -15 -2 -12 -21 -18 4 -22 96 -3 76 -3 75 -5 -22
-2 -103 -2 -103 -27 -103 -14 0 -25 -4 -25 -9 0 -15 -33 -22 -42 -9 -5 9 -8 7
-8 -7 0 -16 -8 -20 -40 -22 -35 -2 -55 10 -31 19 13 5 24 48 12 48 -6 0 -12
15 -12 33 -1 31 -2 31 -9 -8 -4 -22 -6 -43 -3 -47 2 -5 -3 -18 -11 -30 -13
-18 -16 -19 -21 -6 -4 9 -2 26 5 37 9 17 8 21 -5 21 -8 0 -15 -4 -15 -10 0 -5
-9 -10 -21 -10 -11 0 -18 -4 -15 -9 3 -5 -7 -14 -23 -19 -26 -9 -30 -7 -40 15
-8 17 -11 78 -10 167 1 131 0 141 -20 157 -12 10 -30 15 -41 12 -20 -5 -28
-23 -10 -23 6 0 10 -7 10 -15 0 -8 -4 -15 -10 -15 -5 0 -10 -21 -9 -47 0 -36
3 -43 9 -28 6 15 9 7 9 -30 1 -35 -2 -45 -9 -35 -6 10 -10 -9 -12 -60 l-3 -75
-30 -1 c-17 0 -36 -4 -43 -8 -9 -5 -12 8 -12 48 0 43 -3 56 -15 56 -8 0 -15 7
-15 15 0 8 -7 15 -15 15 -8 0 -15 7 -15 15 0 8 7 15 16 15 11 0 14 8 12 28 -3
24 -8 28 -48 33 -25 4 -46 5 -48 4 -7 -6 12 -35 24 -35 8 0 14 -7 14 -15 0
-26 -48 -17 -78 15 -16 17 -39 30 -51 30 -18 0 -21 6 -21 43 0 25 4 37 8 29
10 -15 72 -34 72 -22 0 14 -108 102 -118 96 -13 -8 -71 22 -85 45 -15 24 -26
24 -44 2 -8 -10 -12 -12 -8 -5 4 7 -10 3 -32 -9 -55 -31 -63 -39 -63 -66 0
-21 -4 -24 -27 -20 -16 2 -22 2 -15 0 17 -6 15 -33 -3 -33 -8 0 -15 4 -15 10
0 5 -7 7 -15 4 -11 -5 -14 -2 -8 12 6 18 6 18 -15 0 -14 -12 -22 -31 -22 -53
0 -29 -3 -33 -27 -33 -30 0 -63 -25 -63 -48 0 -9 -3 -12 -7 -9 -3 4 -13 1 -21
-6 -13 -10 -14 -7 -8 25 4 21 2 39 -3 43 -6 3 -33 -6 -60 -20 -28 -14 -58 -25
-66 -25 -9 0 -23 -7 -32 -16 -9 -8 -22 -13 -30 -10 -8 3 -31 -1 -51 -10 -20
-9 -51 -18 -67 -19 -37 -4 -186 -53 -199 -66 -6 -5 -24 -9 -40 -9 -17 -1 -49
-9 -71 -20 -24 -12 -62 -19 -96 -20 -41 0 -62 -5 -79 -20 -13 -11 -39 -20 -59
-21 -41 -1 -38 -1 -341 -23 -124 -9 -259 -20 -300 -25 -111 -15 -298 -13 -424
3 -61 8 -156 20 -211 25 -151 16 -245 31 -300 46 -27 8 -66 17 -85 21 -19 3
-55 12 -80 19 -142 43 -227 70 -240 76 -8 4 -42 16 -75 25 -61 17 -135 44
-190 69 -16 7 -48 21 -70 30 -89 38 -284 135 -345 172 -142 85 -166 101 -268
176 -59 43 -126 90 -149 106 l-42 28 89 6 c50 4 117 16 150 27 74 25 96 25
167 0 74 -26 141 -25 220 1 54 19 68 20 105 10 129 -36 161 -37 261 -4 46 14
52 14 117 -7 78 -25 138 -24 241 5 63 18 68 18 130 1 105 -29 160 -31 240 -6
76 24 128 23 204 -5 71 -25 171 -19 288 19 58 18 119 43 135 55 37 26 44 26
68 0 74 -82 239 -104 396 -54 l87 28 83 -23 c106 -30 225 -36 298 -16 90 24
183 53 216 67 30 12 38 10 138 -39 106 -52 107 -52 206 -52 87 0 110 4 192 34
51 18 120 50 153 69 33 20 64 36 69 37 4 0 29 -17 55 -39z m2761 -178 c0 -5
-44 -7 -97 -5 -156 4 -168 9 -30 10 70 1 127 -1 127 -5z m150 -1 c0 -8 -111
-4 -119 4 -2 2 23 4 57 4 34 0 62 -4 62 -8z m120 0 c0 -5 -20 -9 -45 -9 -25 0
-45 4 -45 9 0 4 20 8 45 8 25 0 45 -4 45 -8z m-9480 -177 c0 -10 10 -15 30
-15 20 0 30 -5 30 -15 0 -10 10 -15 30 -15 20 0 30 -5 30 -15 0 -8 7 -15 15
-15 11 0 15 -12 15 -45 0 -43 1 -45 30 -45 20 0 30 -5 30 -15 0 -8 7 -15 15
-15 8 0 15 -7 15 -15 0 -10 10 -15 30 -15 20 0 30 5 30 15 0 13 23 15 150 15
127 0 150 2 150 15 0 13 22 15 135 15 113 0 135 2 135 15 0 8 7 15 15 15 8 0
15 -7 15 -15 0 -8 7 -15 15 -15 11 0 15 12 16 43 l2 42 7 -50 c11 -70 12 -343
1 -349 -5 -3 -12 1 -15 10 -6 15 -8 15 -26 -1 -17 -15 -24 -16 -46 -7 -21 10
-28 9 -41 -4 -12 -12 -26 -14 -52 -9 -20 3 -52 7 -71 7 -19 1 -40 8 -47 17
-10 13 -15 14 -32 4 -29 -18 -85 -16 -129 3 -20 10 -45 16 -55 15 -10 -2 -26
4 -35 12 -31 27 -110 51 -125 38 -10 -8 -22 -8 -45 0 -22 7 -36 7 -51 0 -11
-6 -38 -11 -60 -11 -22 0 -43 -4 -46 -10 -13 -21 -24 -9 -19 20 8 39 -17 50
-58 27 -38 -22 -50 -21 -92 3 -25 13 -37 16 -42 8 -5 -7 -11 -5 -20 6 -10 15
-15 15 -34 4 -20 -12 -25 -9 -61 32 -40 46 -52 90 -24 90 8 0 15 7 15 15 0 8
7 15 15 15 12 0 15 13 15 60 0 47 3 60 15 60 10 0 15 10 15 30 0 27 3 30 30
30 20 0 30 5 30 15 0 12 15 15 75 15 60 0 75 -3 75 -15z m1740 -180 c0 -12 17
-15 90 -15 73 0 90 -3 90 -15 0 -10 10 -15 29 -15 20 0 30 -6 34 -20 3 -13 10
-18 21 -14 14 5 16 -4 16 -59 0 -61 -1 -65 -20 -60 -13 4 -40 -6 -72 -26 -55
-34 -86 -35 -69 -2 9 15 7 20 -10 24 -24 6 -49 -1 -49 -14 0 -5 7 -9 15 -9 24
0 18 -27 -7 -34 -13 -3 -43 -6 -67 -6 -32 0 -54 -7 -78 -26 -29 -22 -42 -25
-81 -21 -25 2 -48 9 -50 16 -2 7 -39 11 -105 11 l-102 1 -39 39 c-21 21 -50
41 -64 45 -52 13 -70 65 -22 65 20 0 30 5 30 15 0 8 7 15 15 15 8 0 15 7 15
15 0 8 7 15 15 15 8 0 15 7 15 15 0 10 10 15 30 15 20 0 30 5 30 15 0 12 13
15 60 15 47 0 60 3 60 15 0 13 22 15 135 15 113 0 135 -2 135 -15z m360 -61
c0 -8 7 -14 15 -14 8 0 15 7 15 15 0 8 7 15 15 15 8 0 15 -7 15 -15 0 -12 15
-15 75 -15 60 0 75 -3 75 -15 0 -12 15 -15 75 -15 60 0 75 -3 75 -15 0 -8 6
-15 14 -15 26 0 22 -44 -7 -94 -22 -38 -25 -51 -15 -57 10 -7 9 -9 -4 -9 -9 0
-27 13 -40 28 l-23 29 -30 -23 c-27 -20 -35 -21 -85 -12 -30 5 -74 23 -98 39
-33 22 -47 27 -57 19 -10 -8 -15 -8 -20 0 -4 6 -16 10 -28 8 -21 -3 -22 1 -25
78 l-3 81 31 1 c20 0 30 -4 30 -14z m4249 -61 c1 -7 -6 -13 -15 -13 -11 0 -14
5 -10 16 3 9 6 25 7 37 1 20 2 20 9 -3 4 -14 8 -31 9 -37z m-5222 -30 c-3 -10
-5 -4 -5 12 0 17 2 24 5 18 2 -7 2 -21 0 -30z m7153 -18 c0 -8 -9 -10 -25 -7
-14 2 -25 8 -25 12 0 4 11 8 25 8 14 0 25 -6 25 -13z m-1260 -10 c0 -8 -4 -15
-9 -15 -13 0 -22 16 -14 24 11 11 23 6 23 -9z m-640 -33 c0 -6 -6 -12 -12 -15
-9 -3 -13 6 -14 24 -1 23 1 25 12 14 8 -7 14 -18 14 -23z m-3680 3 c0 -10 10
-15 30 -15 20 0 30 -5 30 -15 0 -8 7 -15 15 -15 10 0 15 -10 15 -30 0 -29 -2
-30 -45 -30 -25 0 -45 -4 -45 -9 0 -6 -12 -6 -30 0 -29 11 -30 13 -30 70 0 59
0 59 30 59 20 0 30 -5 30 -15z m3300 3 c0 -30 -13 -58 -26 -58 -17 0 -18 24
-4 51 12 21 30 26 30 7z m750 -3 c0 -8 -7 -15 -15 -15 -8 0 -15 7 -15 15 0 8
7 15 15 15 8 0 15 -7 15 -15z m89 1 c14 -17 4 -47 -14 -40 -7 3 -15 14 -18 24
-8 31 12 41 32 16z m-505 -31 c-4 -8 -10 -15 -15 -15 -5 0 -9 7 -9 15 0 8 7
15 15 15 9 0 12 -6 9 -15z m1796 -5 c0 -11 -4 -20 -10 -20 -5 0 -10 9 -10 20
0 11 5 20 10 20 6 0 10 -9 10 -20z m80 6 c0 -14 -48 -32 -58 -21 -3 3 4 8 16
12 12 3 22 9 22 14 0 5 5 9 10 9 6 0 10 -6 10 -14z m-319 -56 l-8 -45 -7 37
c-9 41 -1 77 13 62 5 -5 5 -29 2 -54z m-483 -7 c-5 -25 -28 -28 -28 -4 0 12 6
21 16 21 9 0 14 -7 12 -17z m-1335 -35 c13 2 17 -5 17 -33 0 -24 -5 -35 -14
-35 -8 0 -17 -12 -19 -27 -3 -19 -5 -13 -6 17 0 25 -3 63 -6 85 -3 29 -3 33 3
15 5 -16 15 -24 25 -22z m1381 16 c3 -8 2 -12 -4 -9 -6 3 -10 10 -10 16 0 14
7 11 14 -7z m-197 -64 c3 -11 20 -23 41 -29 31 -9 21 -10 -55 -6 -51 3 -101 9
-110 14 -10 5 -27 13 -38 17 -15 6 -10 9 25 13 100 13 132 11 137 -9z m508 10
c3 -6 -4 -10 -17 -10 -18 0 -20 2 -8 10 19 12 18 12 25 0z m961 -27 c-3 -3
-13 -2 -23 2 -17 7 -17 8 2 15 19 7 34 -5 21 -17z m-7789 -125 c-2 -24 -4 -7
-4 37 0 44 2 63 4 43 2 -21 2 -57 0 -80z m6667 14 c-9 -16 -25 -39 -36 -53
l-19 -24 12 25 c13 27 51 80 56 80 2 0 -3 -13 -13 -28z m-4424 -862 l0 -290
-30 0 c-17 0 -33 7 -39 18 -9 15 -13 15 -32 3 -19 -11 -23 -11 -30 2 -7 11
-21 14 -55 10 -49 -5 -94 2 -94 15 0 4 30 8 66 9 36 0 68 4 72 8 14 13 -32 36
-60 29 -19 -4 -28 -1 -28 6 0 9 -5 9 -17 -1 -13 -11 -17 -11 -20 -2 -5 14 -80
8 -97 -7 -5 -5 -14 -6 -21 -4 -21 8 -25 -43 -5 -61 10 -9 16 -24 13 -35 -7
-26 -39 -31 -59 -9 -9 10 -26 19 -37 19 -17 0 -19 -5 -14 -37 l6 -38 -19 23
c-10 12 -20 28 -23 35 -3 9 -9 9 -25 0 -18 -11 -20 -9 -25 15 -6 30 7 52 31
52 31 0 -3 19 -45 26 -30 4 -43 3 -43 -5 0 -7 -15 -11 -39 -10 -22 2 -49 -4
-62 -13 -18 -11 -31 -13 -49 -6 -18 7 -32 5 -52 -6 -14 -9 -33 -13 -42 -10 -9
3 -32 -2 -52 -11 -28 -13 -42 -15 -60 -6 -15 6 -25 7 -29 0 -11 -17 -25 1 -25
31 0 40 -24 51 -82 36 -26 -6 -50 -15 -54 -19 -13 -12 -35 -8 -61 13 -34 26
-36 26 -64 -14 -12 -19 -28 -32 -34 -30 -6 3 -20 -4 -30 -16 -19 -21 -75 -28
-75 -9 0 6 -7 8 -16 5 -13 -5 -15 -2 -11 14 4 16 0 20 -18 20 -13 0 -25 7 -29
15 -8 22 -47 19 -53 -5 -3 -11 -9 -17 -15 -14 -15 10 -38 -17 -38 -45 0 -21
-5 -26 -27 -27 -16 -1 -44 -2 -63 -3 -52 -3 -120 0 -120 5 0 3 11 15 25 28 14
13 25 28 25 35 0 6 9 11 19 11 17 0 18 6 13 86 l-5 87 27 -5 c29 -6 46 13 46
53 0 12 8 31 17 42 16 17 16 20 3 30 -9 7 -15 25 -15 40 1 16 -3 31 -7 33 -5
3 -6 10 -2 15 3 6 -4 13 -16 16 -13 3 -19 11 -16 20 14 35 -89 88 -121 62 -12
-11 -17 -10 -24 4 -6 9 -21 17 -34 17 -16 0 -25 6 -25 15 0 12 -14 15 -66 15
l-67 0 8 -47 c9 -60 7 -105 -5 -117 -7 -7 -10 23 -10 82 l0 92 1030 0 1029 0
1 -290z m4720 54 c0 -229 -1 -235 -19 -229 -18 5 -20 0 -24 -47 -2 -32 -4 -18
-4 33 0 47 -3 90 -6 96 -4 7 2 21 13 31 l21 20 -26 6 c-14 4 -42 4 -62 0 -36
-7 -62 -10 -95 -13 -10 0 -18 -8 -18 -18 0 -15 -1 -15 -18 0 -23 21 -42 22
-42 2 0 -8 -6 -15 -14 -15 -8 0 -16 7 -20 15 -3 8 -13 15 -22 15 -11 0 -14 -5
-10 -16 5 -14 0 -16 -41 -12 l-48 4 -1 -41 c-1 -36 2 -44 25 -53 23 -10 20
-11 -22 -7 -30 3 -46 1 -42 -5 3 -6 12 -10 18 -10 11 0 12 -31 8 -183 -1 -14
-8 -18 -28 -17 -47 3 -50 1 -45 -25 4 -22 1 -25 -22 -25 -24 0 -26 4 -27 43
-1 23 -3 34 -6 25 -2 -10 -11 -18 -19 -18 -8 0 -25 -23 -38 -51 -15 -31 -27
-46 -31 -39 -4 7 -12 48 -17 93 -4 44 -10 82 -11 84 -2 1 -16 -1 -33 -6 -29
-7 -29 -8 -32 -87 -1 -48 1 -74 7 -66 6 10 10 7 13 -13 5 -25 3 -27 -23 -23
-21 3 -29 0 -33 -16 -5 -21 -5 -21 -20 -1 -9 11 -16 30 -16 43 0 22 -13 27
-65 23 -19 -2 -19 -1 -2 12 20 16 23 48 5 44 -9 -1 -12 10 -11 36 1 20 -2 37
-7 37 -11 0 -16 -57 -11 -127 2 -43 -12 -59 -22 -24 -4 15 -18 20 -90 26 -72
6 -86 10 -90 26 -6 23 -30 25 -51 4 -13 -13 -15 -13 -20 2 -14 49 -18 93 -7
93 6 0 11 -7 11 -15 0 -20 19 -19 42 2 28 25 23 53 -9 54 l-28 0 25 10 c20 8
22 12 10 19 -8 5 -10 10 -4 10 8 0 12 31 13 93 1 68 -2 87 -10 74 -7 -12 -17
-15 -33 -11 -34 8 -41 -11 -17 -49 23 -37 24 -118 3 -125 -7 -2 -12 -10 -12
-18 0 -16 -39 -34 -76 -34 -21 0 -24 4 -24 38 0 69 -69 98 -78 33 -5 -34 -22
-24 -22 14 0 20 -5 35 -12 35 -8 0 -9 32 -5 119 l6 119 -28 14 c-17 8 -51 12
-87 10 l-59 -3 3 -60 c3 -49 7 -59 22 -59 10 0 25 -3 34 -6 13 -5 16 2 16 45
l0 51 35 0 c23 0 35 -5 35 -14 0 -9 -8 -12 -24 -9 -18 4 -26 0 -31 -16 -11
-35 18 -111 42 -111 7 0 13 -7 13 -15 0 -8 -7 -15 -15 -15 -8 0 -15 5 -15 10
0 6 -7 10 -15 10 -13 0 -15 -26 -15 -175 0 -149 -2 -175 -15 -175 -12 0 -15
13 -15 60 0 47 -3 60 -15 60 -8 0 -15 -7 -15 -15 0 -10 -10 -15 -30 -15 -29 0
-30 2 -30 45 0 33 4 45 15 45 8 0 15 -7 15 -15 0 -10 10 -15 30 -15 29 0 30 2
30 45 0 33 -4 45 -15 45 -8 0 -15 -7 -15 -15 0 -10 -10 -15 -30 -15 -29 0 -30
2 -31 48 -1 26 0 59 1 75 1 25 -1 27 -41 27 -47 0 -46 9 2 19 35 7 52 31 22
31 -11 0 -14 3 -7 8 6 4 14 33 18 65 5 47 4 57 -9 57 -8 0 -15 -7 -15 -15 0
-8 -7 -15 -15 -15 -8 0 -15 7 -15 15 0 8 -7 15 -15 15 -8 0 -15 4 -15 9 0 12
26 21 61 21 16 0 29 4 29 8 0 23 -200 -22 -233 -51 -14 -12 -33 -29 -43 -38
-51 -42 -74 -83 -74 -130 0 -26 -5 -51 -11 -55 -8 -5 -6 -10 5 -16 13 -7 16
-26 15 -106 0 -54 -4 -89 -8 -78 -7 17 -9 16 -19 -10 -6 -16 -11 -48 -11 -72
2 -50 -8 -65 -24 -37 -14 26 -9 88 9 98 8 4 14 17 14 27 0 10 5 22 10 25 6 3
10 39 10 78 0 50 -3 67 -10 57 -5 -8 -10 -29 -10 -46 0 -17 -6 -37 -14 -43
-20 -17 -28 13 -25 92 1 35 0 68 -3 73 -4 5 -9 26 -13 47 -9 47 9 50 29 5 l14
-33 1 63 c1 35 -3 62 -9 62 -5 0 -10 -6 -10 -14 0 -8 -7 -16 -15 -20 -13 -5
-15 16 -15 149 l0 155 1035 0 1035 0 0 -236z m185 226 c3 -5 1 -10 -4 -10 -6
0 -11 5 -11 10 0 6 2 10 4 10 3 0 8 -4 11 -10z m83 -7 c-10 -2 -26 -2 -35 0
-10 3 -2 5 17 5 19 0 27 -2 18 -5z m-6968 -37 c0 -8 -7 -16 -15 -20 -10 -4
-15 1 -15 14 0 11 7 20 15 20 8 0 15 -6 15 -14z m2647 -249 c12 -12 23 -32 23
-44 0 -14 6 -23 15 -23 8 0 15 -7 15 -15 0 -8 -7 -15 -15 -15 -12 0 -15 -13
-15 -60 0 -47 -3 -60 -15 -60 -8 0 -15 -7 -15 -15 0 -8 -7 -15 -15 -15 -8 0
-15 -7 -15 -16 0 -13 9 -15 50 -12 72 4 62 -8 -12 -16 -42 -5 -64 -4 -66 3 -4
12 -32 15 -32 4 0 -5 -21 -8 -47 -8 -27 0 -60 -4 -74 -9 -31 -9 -38 6 -31 72
3 28 9 42 19 42 11 0 13 16 11 85 -3 80 -2 85 22 102 38 27 60 32 120 26 36
-3 62 -12 77 -26z m2356 -48 c-5 -5 -6 11 -3 34 4 41 5 41 8 8 2 -18 0 -37 -5
-42z m1602 -29 c3 -5 -1 -22 -9 -37 l-14 -28 -7 27 c-10 38 13 66 30 38z
m-1628 -16 c-3 -3 -12 -4 -19 -1 -8 3 -5 6 6 6 11 1 17 -2 13 -5z m-1707 -19
c0 -10 10 -15 30 -15 20 0 30 -5 30 -15 0 -10 10 -15 30 -15 38 0 40 -27 5
-60 -26 -24 -33 -64 -14 -76 8 -4 8 -9 0 -17 -10 -10 -55 -1 -119 24 -13 5
-30 6 -37 2 -14 -8 -190 -1 -199 7 -9 10 7 60 20 60 9 0 14 11 14 30 0 20 5
30 15 30 8 0 15 7 15 15 0 11 12 15 45 15 33 0 45 4 45 15 0 12 13 15 60 15
47 0 60 -3 60 -15z m1500 4 c0 -6 -7 -17 -15 -25 -13 -14 -15 -13 -15 10 0 16
6 26 15 26 8 0 15 -5 15 -11z m1648 -1 c-6 -18 -25 -20 -31 -3 -5 10 0 15 14
15 12 0 19 -5 17 -12z m-6278 -65 c-1 -18 -18 -35 -24 -24 -4 6 -4 16 -1 21 7
12 25 13 25 3z m1602 -35 c-7 -7 -12 -8 -12 -2 0 14 12 26 19 19 2 -3 -1 -11
-7 -17z m3508 10 c0 -7 3 -23 6 -35 5 -18 3 -21 -15 -16 -26 7 -31 63 -6 63 8
0 15 -6 15 -12z m1080 -28 c0 -11 -2 -20 -4 -20 -2 0 -6 9 -9 20 -3 11 -1 20
4 20 5 0 9 -9 9 -20z m-4500 -40 c0 -5 -5 -10 -11 -10 -5 0 -7 5 -4 10 3 6 8
10 11 10 2 0 4 -4 4 -10z m3615 -60 c3 -5 1 -10 -4 -10 -6 0 -11 5 -11 10 0 6
2 10 4 10 3 0 8 -4 11 -10z m-3825 -25 c0 -8 -9 -15 -20 -15 -11 0 -20 7 -20
15 0 8 9 15 20 15 11 0 20 -7 20 -15z m3690 -6 c0 -18 -2 -19 -15 -9 -8 7 -15
16 -15 21 0 5 7 9 15 9 9 0 15 -9 15 -21z m1000 -23 c0 -25 -5 -48 -11 -51 -7
-5 -9 10 -7 44 4 63 18 68 18 7z m-220 -86 c0 -16 -4 -30 -8 -30 -4 0 -7 12
-6 28 3 32 3 32 9 32 3 0 5 -13 5 -30z m156 -21 c3 -5 -9 -9 -25 -9 -20 0 -31
5 -31 14 0 15 46 11 56 -5z m104 1 c0 -5 -13 -10 -30 -10 -16 0 -30 5 -30 10
0 6 14 10 30 10 17 0 30 -4 30 -10z m-2090 -45 c0 -10 10 -15 30 -15 29 0 30
-2 30 -45 0 -43 -1 -45 -30 -45 -20 0 -30 5 -30 15 0 12 -13 15 -60 15 -47 0
-60 3 -60 15 0 8 7 15 15 15 8 0 15 7 15 15 0 8 7 15 15 15 8 0 15 7 15 15 0
10 10 15 30 15 20 0 30 -5 30 -15z m1440 -2 c0 -5 59 -9 131 -9 110 -1 133 -4
141 -18 11 -19 48 -22 49 -3 0 10 2 10 6 0 7 -18 33 -16 33 2 0 23 28 18 41
-7 9 -17 8 -28 -6 -55 -14 -25 -21 -30 -28 -21 -6 9 -7 6 -4 -9 7 -31 -31 -73
-66 -73 -17 0 -27 -5 -27 -15 0 -8 -7 -15 -15 -15 -8 0 -15 -7 -15 -15 0 -11
-12 -15 -45 -15 -33 0 -45 -4 -45 -15 0 -11 -12 -15 -45 -15 -33 0 -45 4 -45
15 0 8 -7 15 -15 15 -11 0 -15 12 -15 45 0 43 -1 45 -30 45 -20 0 -30 5 -30
15 0 10 -10 15 -30 15 -20 0 -30 5 -30 15 0 11 -12 15 -45 15 -33 0 -45 4 -45
15 0 8 7 15 15 15 10 0 15 10 15 30 0 30 24 43 33 18 3 -10 7 -10 20 1 10 7
17 11 17 7 0 -4 12 0 28 8 30 17 52 20 52 9z m-1240 -103 c0 -16 -4 -30 -10
-30 -5 0 -10 14 -10 30 0 17 5 30 10 30 6 0 10 -13 10 -30z m-2965 -570 c18
-8 17 -9 -7 -9 -16 -1 -28 4 -28 9 0 12 8 12 35 0z m2113 -78 c2 -7 -6 -12
-17 -12 -21 0 -27 11 -14 24 9 9 26 2 31 -12z m-228 -22 c0 -5 -4 -10 -10 -10
-5 0 -10 5 -10 10 0 6 5 10 10 10 6 0 10 -4 10 -10z m-1668 -32 c-15 -15 -26
-4 -18 18 5 13 9 15 18 6 9 -9 9 -15 0 -24z m1998 12 c-8 -5 -22 -10 -30 -10
-13 0 -13 1 0 10 8 5 22 10 30 10 13 0 13 -1 0 -10z m-300 -10 c0 -5 -9 -10
-21 -10 -11 0 -17 5 -14 10 3 6 13 10 21 10 8 0 14 -4 14 -10z m865 -60 c8
-16 15 -52 15 -80 l0 -50 -98 0 c-65 0 -102 4 -110 12 -10 10 -15 10 -21 -1
-6 -10 -10 -10 -16 -2 -5 9 -10 9 -19 1 -7 -5 -37 -9 -65 -8 -46 2 -55 6 -67
30 -13 25 -13 28 8 39 13 7 25 15 28 19 3 4 19 14 36 23 22 12 34 13 42 5 8
-8 13 -4 17 15 6 24 11 26 93 32 48 4 92 8 97 9 18 6 44 -14 60 -44z m-2565
-2 c0 -5 -4 -8 -10 -8 -5 0 -10 10 -10 23 0 18 2 19 10 7 5 -8 10 -18 10 -22z
m1424 -74 c11 -4 16 -19 16 -50 0 -24 -1 -44 -2 -45 -2 -1 -68 -3 -147 -5 -84
-3 -150 -9 -158 -15 -10 -9 -13 -7 -13 9 0 43 10 52 59 52 25 1 82 14 126 30
87 31 96 33 119 24z m661 -14 c-10 -11 -15 -20 -11 -20 3 0 -1 -11 -10 -25 -9
-14 -22 -25 -29 -25 -7 0 -16 -6 -18 -12 -3 -7 -6 -3 -6 10 -1 13 5 22 14 22
8 0 15 7 15 15 0 8 -6 15 -12 15 -16 0 21 26 47 33 11 2 22 5 24 6 2 0 -4 -8
-14 -19z m532 -12 c-3 -7 -5 -2 -5 12 0 14 2 19 5 13 2 -7 2 -19 0 -25z
m-1601 -29 c29 -8 44 -17 44 -28 0 -14 -12 -16 -85 -13 -82 3 -85 4 -85 28 0
21 4 24 41 24 22 0 60 -5 85 -11z m81 -41 c-3 -7 -5 -2 -5 12 0 14 2 19 5 13
2 -7 2 -19 0 -25z"/>
<path d="M3145 10070 c-3 -5 -2 -10 4 -10 5 0 13 5 16 10 3 6 2 10 -4 10 -5 0
-13 -4 -16 -10z"/>
<path d="M5268 7527 c-53 -25 -89 -65 -117 -129 l-19 -45 -129 -5 c-71 -3
-138 -10 -149 -16 -10 -6 -41 -20 -67 -32 -98 -45 -182 -136 -216 -235 -20
-56 -21 -80 -21 -412 l0 -353 31 -65 c33 -71 88 -126 164 -165 58 -30 61 -35
38 -67 -45 -63 -53 -80 -53 -112 0 -25 8 -41 34 -65 68 -62 208 -75 796 -76
567 0 760 15 827 66 57 43 60 132 7 181 -21 19 -23 25 -12 43 7 11 25 24 40
29 41 14 127 99 153 151 43 85 46 117 45 438 -1 342 -7 394 -62 484 -35 59
-72 97 -133 136 -80 52 -153 70 -296 71 -93 1 -110 10 -122 61 -10 40 -67 101
-114 121 -40 17 -71 19 -311 18 -253 0 -269 -1 -314 -22z m1092 -278 c65 -31
142 -105 170 -165 12 -23 25 -68 30 -100 13 -79 13 -552 0 -633 -19 -112 -71
-184 -167 -229 l-58 -27 -750 0 -750 0 -57 28 c-63 31 -106 78 -141 154 -21
46 -22 62 -25 358 -4 323 1 383 39 457 41 81 118 144 212 174 34 10 183 13
742 11 l700 -2 55 -26z"/>
<path d="M5000 7206 c-261 -58 -398 -338 -285 -583 52 -115 148 -196 270 -228
153 -40 292 2 404 120 161 170 157 421 -9 579 -64 61 -114 90 -197 111 -67 18
-108 18 -183 1z m223 -78 c107 -44 174 -119 209 -233 61 -196 -108 -436 -320
-453 -69 -6 -173 28 -238 77 -53 39 -108 121 -125 186 -19 68 -7 192 25 254
43 84 119 149 211 182 11 4 57 7 103 8 65 1 95 -4 135 -21z"/>
<path d="M4979 7045 c-57 -30 -103 -75 -129 -126 -30 -59 -28 -184 5 -248 42
-85 137 -141 235 -141 142 0 245 84 270 222 21 113 -44 235 -155 292 -68 35
-160 36 -226 1z m56 -90 c29 -28 32 -65 8 -93 -46 -54 -123 -24 -123 48 0 67
68 93 115 45z"/>
<path d="M5994 7206 c-80 -19 -136 -48 -195 -103 -94 -87 -134 -193 -127 -327
7 -108 37 -181 110 -260 174 -191 478 -175 632 34 62 84 81 145 80 255 -1 104
-21 166 -78 244 -96 130 -264 192 -422 157z m231 -80 c77 -36 140 -98 177
-174 30 -60 33 -75 33 -152 -1 -75 -4 -93 -32 -150 -39 -80 -88 -128 -176
-174 -58 -30 -79 -36 -132 -36 -207 0 -365 159 -366 368 0 65 4 82 37 148 41
83 87 129 169 169 42 21 65 24 145 25 79 0 103 -4 145 -24z"/>
<path d="M5973 7045 c-29 -14 -68 -41 -86 -60 -64 -66 -98 -211 -62 -259 8
-11 15 -26 15 -34 0 -14 46 -79 70 -99 43 -35 123 -63 180 -63 32 0 61 4 64 9
3 5 18 12 33 16 45 11 98 61 131 125 26 48 32 72 32 121 0 196 -203 327 -377
244z m62 -90 c14 -13 25 -36 25 -50 0 -14 -11 -37 -25 -50 -40 -41 -92 -29
-120 26 -17 31 -14 40 18 77 27 30 71 29 102 -3z"/>
<path d="M5425 6450 c-15 -17 -16 -24 -6 -49 45 -108 199 -136 295 -52 44 39
56 101 21 115 -23 9 -43 -3 -64 -39 -34 -57 -124 -64 -163 -13 -48 64 -56 68
-83 38z"/>
<path d="M2965 7463 c-89 -20 -255 -89 -270 -113 -3 -5 3 -10 14 -10 12 0 21
4 21 9 0 5 12 14 28 20 15 6 34 15 42 20 8 5 48 20 89 32 40 13 81 29 90 36 9
7 14 12 11 12 -3 -1 -14 -3 -25 -6z"/>
<path d="M2672 7135 c0 -16 2 -22 5 -12 2 9 2 23 0 30 -3 6 -5 -1 -5 -18z"/>
<path d="M8515 7076 c0 -37 15 -44 15 -8 0 18 -4 32 -8 32 -4 0 -8 -11 -7 -24z"/>
<path d="M8865 6280 c3 -5 8 -10 11 -10 2 0 4 5 4 10 0 6 -5 10 -11 10 -5 0
-7 -4 -4 -10z"/>
<path d="M8900 6090 c0 -5 5 -10 11 -10 5 0 7 5 4 10 -3 6 -8 10 -11 10 -2 0
-4 -4 -4 -10z"/>
<path d="M1853 8695 c0 -38 2 -53 4 -32 2 20 2 52 0 70 -2 17 -4 1 -4 -38z"/>
<path d="M1841 8584 c0 -11 3 -14 6 -6 3 7 2 16 -1 19 -3 4 -6 -2 -5 -13z"/>
<path d="M3352 8680 c0 -14 2 -19 5 -12 2 6 2 18 0 25 -3 6 -5 1 -5 -13z"/>
<path d="M3400 8665 c0 -8 5 -15 10 -15 6 0 10 7 10 15 0 8 -4 15 -10 15 -5 0
-10 -7 -10 -15z"/>
<path d="M9900 7505 c0 -8 -7 -15 -15 -15 -8 0 -15 -7 -15 -15 0 -8 7 -15 15
-15 8 0 15 7 15 15 0 8 9 15 20 15 13 0 18 5 14 15 -4 8 -12 15 -20 15 -8 0
-14 -7 -14 -15z"/>
<path d="M10072 7395 c0 -16 2 -22 5 -12 2 9 2 23 0 30 -3 6 -5 -1 -5 -18z"/>
<path d="M9720 7286 c0 -25 5 -35 20 -39 24 -6 25 0 4 41 -20 41 -24 40 -24
-2z"/>
<path d="M9900 6905 c0 -8 7 -15 15 -15 8 0 15 -7 15 -15 0 -8 7 -15 15 -15
10 0 15 10 15 30 0 27 -3 30 -30 30 -20 0 -30 -5 -30 -15z"/>
<path d="M3064 5195 c-62 -17 -110 -44 -194 -111 -115 -90 -228 -273 -337
-543 -30 -75 -57 -142 -60 -150 -9 -20 -69 -7 -110 25 -53 40 -73 80 -73 147
0 93 -53 126 -110 69 -56 -57 -65 -151 -20 -229 33 -57 84 -98 170 -133 30
-13 60 -27 66 -32 10 -7 -31 -139 -103 -323 l-19 -50 -71 3 c-92 4 -241 -22
-302 -53 -73 -36 -101 -75 -101 -138 0 -33 7 -63 19 -83 24 -40 99 -76 168
-82 107 -9 285 54 357 125 l37 38 32 -19 c154 -89 272 -126 406 -126 179 1
242 61 258 243 l6 68 31 -30 c67 -63 102 -76 211 -76 79 0 105 4 125 18 l24
17 -42 0 c-31 0 -42 -4 -42 -15 0 -10 -10 -15 -30 -15 -20 0 -30 5 -30 15 0 8
-7 15 -15 15 -10 0 -15 10 -15 31 0 26 3 31 20 26 11 -3 23 -1 26 4 3 5 -4 9
-14 9 -11 0 -34 16 -51 35 -26 30 -31 44 -31 88 -1 40 -3 48 -11 35 -5 -10
-21 -18 -34 -18 -21 0 -25 5 -25 30 0 20 5 30 15 30 8 0 15 7 15 15 0 8 -7 15
-15 15 -8 0 -15 7 -15 15 0 8 -7 15 -15 15 -8 0 -15 -7 -15 -15 0 -8 -7 -15
-15 -15 -8 0 -15 7 -15 15 0 8 7 15 15 15 10 0 15 10 15 30 0 20 5 30 15 30
10 0 15 10 15 30 0 20 5 30 15 30 8 0 15 5 15 11 0 17 43 48 68 49 13 0 22 6
22 15 0 8 7 15 15 15 8 0 15 7 15 15 0 9 9 15 24 15 22 0 44 16 34 25 -8 8
-111 -53 -158 -93 -107 -92 -170 -207 -170 -310 0 -100 -51 -159 -173 -202
-96 -34 -260 -24 -351 22 -45 23 -45 23 7 148 20 47 54 134 77 195 22 60 46
115 53 121 6 7 50 25 97 42 77 27 127 49 232 103 49 25 172 148 231 230 76
108 127 250 127 356 0 113 -64 202 -158 222 -65 13 -74 13 -138 -4z m128 -134
c31 -28 33 -33 32 -94 0 -54 -7 -78 -42 -150 -84 -177 -208 -320 -323 -375
-64 -31 -139 -50 -139 -37 0 24 121 326 164 410 70 136 200 275 258 275 10 0
32 -13 50 -29z m-102 -1186 c0 -8 -7 -15 -15 -15 -8 0 -15 7 -15 15 0 8 7 15
15 15 8 0 15 -7 15 -15z m-926 -144 c9 -14 -82 -87 -126 -100 -76 -23 -130 35
-71 77 16 11 44 22 63 25 67 8 129 7 134 -2z"/>
<path d="M3064 4988 c-31 -29 -71 -73 -90 -99 -55 -76 -189 -397 -172 -414 15
-15 100 45 180 126 76 77 95 104 143 201 45 92 55 122 55 163 0 91 -36 98
-116 23z"/>
<path d="M2005 3680 c-4 -6 5 -10 20 -10 15 0 24 4 20 10 -3 6 -12 10 -20 10
-8 0 -17 -4 -20 -10z"/>
<path d="M9127 4993 c-12 -11 -8 -48 8 -69 19 -25 19 -88 -1 -144 -93 -261
-224 -525 -374 -755 -22 -33 -48 -76 -59 -96 -26 -47 -80 -94 -94 -80 -12 12
-12 51 1 104 6 23 20 94 32 157 11 63 27 147 36 185 8 39 16 81 18 95 2 14 11
61 19 105 47 243 49 299 13 342 -33 40 -115 67 -174 59 -69 -9 -144 -50 -211
-114 -71 -67 -85 -106 -51 -134 12 -10 29 -18 38 -18 9 0 46 32 83 70 53 56
72 70 96 70 51 0 58 -19 40 -108 -9 -42 -30 -126 -46 -187 -99 -373 -119 -669
-52 -751 84 -102 189 -56 340 150 76 103 208 300 238 356 16 30 39 71 50 90
63 110 87 157 137 268 100 222 115 304 64 360 -38 41 -129 68 -151 45z"/>
<path d="M7920 4688 c-55 -18 -76 -33 -136 -93 -56 -56 -81 -92 -122 -175 -28
-58 -63 -146 -77 -197 -23 -78 -26 -106 -22 -190 5 -126 19 -163 88 -234 52
-53 61 -58 113 -64 115 -15 220 16 300 86 41 36 121 152 138 200 6 19 17 45
25 59 7 14 13 32 13 41 0 8 4 19 9 25 15 15 41 153 41 219 0 148 -68 272 -175
321 -62 29 -111 30 -195 2z m144 -113 c50 -54 58 -153 26 -311 -36 -177 -131
-391 -195 -436 -5 -4 -29 -8 -52 -8 -34 0 -46 5 -67 30 -32 39 -40 82 -33 189
11 164 76 359 165 493 45 69 114 88 156 43z"/>
<path d="M7954 4518 c-105 -114 -204 -502 -154 -603 18 -36 62 -45 91 -19 26
24 94 168 131 278 24 74 31 113 35 206 5 129 -5 163 -47 168 -18 2 -34 -7 -56
-30z"/>
<path d="M6447 4668 c-57 -12 -136 -79 -167 -141 -17 -35 -19 -48 -11 -70 10
-25 15 -28 53 -25 37 3 46 9 87 62 59 76 89 97 143 103 40 5 47 2 71 -27 52
-61 26 -174 -57 -253 -27 -25 -63 -44 -111 -60 -66 -21 -70 -24 -70 -52 0 -32
12 -40 97 -70 58 -20 88 -63 88 -126 -1 -106 -86 -176 -207 -170 -33 2 -91 57
-98 94 -16 77 -56 97 -102 51 -22 -22 -25 -32 -21 -79 6 -69 39 -114 110 -148
69 -33 120 -40 197 -28 90 15 160 52 218 115 102 111 93 225 -22 301 -33 22
-55 44 -55 55 0 11 23 34 58 57 113 78 161 181 128 277 -23 66 -72 113 -133
127 -71 16 -142 19 -196 7z"/>
<path d="M7260 4661 c-36 -7 -131 -65 -184 -111 -134 -118 -206 -233 -245
-392 -40 -164 -18 -287 65 -370 41 -42 53 -48 115 -58 165 -28 333 62 421 225
28 51 32 70 32 130 0 82 -23 134 -78 183 -86 75 -248 64 -318 -22 -23 -29 -33
-13 -20 31 19 63 84 163 145 224 73 73 116 84 191 46 27 -14 56 -23 65 -22 9
2 19 4 22 4 4 1 10 12 13 25 7 28 -18 82 -43 96 -25 13 -139 20 -181 11z m5
-484 c93 -79 -35 -357 -164 -357 -75 0 -106 48 -99 154 5 75 29 126 79 173 62
57 139 69 184 30z"/>
<path d="M7129 4127 c-89 -58 -121 -240 -44 -247 42 -4 55 1 89 35 62 62 99
188 64 223 -19 19 -72 14 -109 -11z"/>
<path d="M3592 4275 c0 -16 2 -22 5 -12 2 9 2 23 0 30 -3 6 -5 -1 -5 -18z"/>
<path d="M5600 4240 c0 -17 -7 -47 -15 -67 -28 -66 -7 -52 35 24 19 35 21 45
10 58 -19 23 -30 18 -30 -15z"/>
<path d="M3376 4199 c-38 -45 -34 -71 5 -33 17 16 35 37 40 47 17 30 -17 20
-45 -14z"/>
<path d="M3899 4193 c-47 -50 -62 -76 -87 -151 -39 -111 -22 -168 38 -124 51
38 131 200 134 272 1 30 -2 35 -24 38 -18 2 -35 -7 -61 -35z"/>
<path d="M5337 4219 c-9 -5 -24 -23 -32 -39 -13 -26 -14 -30 -1 -30 13 0 36
26 60 68 9 14 -2 15 -27 1z"/>
<path d="M3576 4205 c-9 -26 -7 -32 5 -12 6 10 9 21 6 23 -2 3 -7 -2 -11 -11z"/>
<path d="M4619 4180 c-64 -67 -124 -217 -105 -265 16 -43 109 63 170 195 29
62 31 81 14 98 -20 20 -40 14 -79 -28z"/>
<path d="M3270 4160 c0 -20 -5 -30 -15 -30 -10 0 -15 -10 -15 -30 0 -23 5 -30
19 -30 14 0 17 6 14 24 -3 14 2 35 11 48 20 28 21 48 1 48 -10 0 -15 -10 -15
-30z"/>
<path d="M5485 4055 c-45 -38 -133 -76 -187 -82 -55 -7 -63 -14 -48 -43 30
-56 106 -50 177 15 92 82 143 179 58 110z"/>
<path d="M3483 4029 c-24 -17 -74 -38 -113 -47 -59 -14 -70 -20 -70 -38 0 -27
30 -54 61 -54 60 1 146 64 168 123 21 56 15 58 -46 16z"/>
<path d="M3460 3865 c-11 -13 -10 -14 4 -9 9 3 16 10 16 15 0 13 -6 11 -20 -6z"/>
<path d="M3390 3840 l-25 -8 28 -1 c15 -1 27 4 27 9 0 6 -1 10 -2 9 -2 -1 -14
-5 -28 -9z"/>
<path d="M3498 3793 c7 -3 16 -2 19 1 4 3 -2 6 -13 5 -11 0 -14 -3 -6 -6z"/>
<path d="M537 4214 c-4 -4 -4 -18 -1 -30 5 -18 2 -24 -10 -24 -10 0 -16 -9
-16 -24 0 -34 16 -40 40 -16 15 15 20 31 18 57 -3 35 -17 51 -31 37z"/>
<path d="M8451 3183 c1 -85 5 -153 10 -153 12 0 11 258 -1 285 -6 13 -9 -37
-9 -132z"/>
<path d="M8496 3203 c4 -49 8 -90 10 -92 2 -2 4 37 4 87 0 58 -4 92 -11 92 -7
0 -8 -29 -3 -87z"/>
<path d="M8141 2970 c1 -8 4 -26 8 -40 l7 -24 17 24 c25 36 22 58 -8 56 -15 0
-25 -7 -24 -16z"/>
<path d="M8492 2900 c0 -19 2 -27 5 -17 2 9 2 25 0 35 -3 9 -5 1 -5 -18z"/>
<path d="M7338 1873 c7 -3 16 -2 19 1 4 3 -2 6 -13 5 -11 0 -14 -3 -6 -6z"/>
<path d="M7500 1856 c0 -11 9 -16 26 -16 31 0 28 23 -4 28 -15 2 -22 -2 -22
-12z"/>
<path d="M8690 1720 c0 -5 5 -10 10 -10 6 0 10 5 10 10 0 6 -4 10 -10 10 -5 0
-10 -4 -10 -10z"/>
<path d="M8500 1700 c0 -11 5 -20 10 -20 6 0 10 9 10 20 0 11 -4 20 -10 20 -5
0 -10 -9 -10 -20z"/>
<path d="M8470 1700 c0 -5 5 -10 11 -10 5 0 7 5 4 10 -3 6 -8 10 -11 10 -2 0
-4 -4 -4 -10z"/>
<path d="M8550 1700 c20 -13 33 -13 25 0 -3 6 -14 10 -23 10 -15 0 -15 -2 -2
-10z"/>
<path d="M8600 1686 c0 -9 5 -16 10 -16 6 0 10 4 10 9 0 6 -4 13 -10 16 -5 3
-10 -1 -10 -9z"/>
<path d="M8471 1630 c0 -36 2 -41 10 -27 7 12 7 27 0 45 -9 25 -9 24 -10 -18z"/>
<path d="M8500 1630 c0 -20 5 -30 15 -30 11 0 12 5 5 24 -5 13 -6 27 -3 30 4
3 1 6 -5 6 -7 0 -12 -13 -12 -30z"/>
<path d="M7396 1598 c-20 -28 -20 -48 -1 -48 8 0 14 -5 13 -12 -2 -6 5 -13 14
-16 14 -3 17 4 16 37 -1 52 -20 71 -42 39z"/>
<path d="M8470 1550 c0 -5 5 -10 11 -10 5 0 7 5 4 10 -3 6 -8 10 -11 10 -2 0
-4 -4 -4 -10z"/>
<path d="M8242 1455 c0 -16 2 -22 5 -12 2 9 2 23 0 30 -3 6 -5 -1 -5 -18z"/>
<path d="M8010 1440 c0 -11 5 -20 10 -20 6 0 10 9 10 20 0 11 -4 20 -10 20 -5
0 -10 -9 -10 -20z"/>
<path d="M6355 290 c-4 -6 8 -10 29 -10 20 0 36 5 36 10 0 6 -13 10 -29 10
-17 0 -33 -4 -36 -10z"/>
<path d="M6306 230 c11 -4 36 -5 55 0 31 7 29 8 -21 8 -39 1 -49 -2 -34 -8z"/>
<path d="M6405 220 c3 -5 11 -10 16 -10 6 0 7 5 4 10 -3 6 -11 10 -16 10 -6 0
-7 -4 -4 -10z"/>
<path d="M2477 10118 c6 -7 13 -20 16 -28 3 -9 6 -3 6 13 1 19 -4 27 -15 27
-12 0 -14 -4 -7 -12z"/>
<path d="M2500 10030 c-13 -9 -13 -11 0 -20 22 -15 30 -12 30 10 0 22 -8 25
-30 10z"/>
<path d="M1632 9089 c-26 -10 -20 -32 6 -25 10 2 44 8 77 12 48 6 55 8 35 15
-35 10 -91 9 -118 -2z"/>
<path d="M688 7793 c17 -2 47 -2 65 0 17 2 3 4 -33 4 -36 0 -50 -2 -32 -4z"/>
<path d="M868 7793 c12 -2 30 -2 40 0 9 3 -1 5 -23 4 -22 0 -30 -2 -17 -4z"/>
<path d="M1148 7793 c170 -3 202 -6 202 -18 0 -11 12 -15 45 -15 33 0 45 4 45
15 0 12 31 15 198 18 108 1 -3 2 -248 2 -245 0 -354 -1 -242 -2z"/>
<path d="M1988 7793 c7 -3 16 -2 19 1 4 3 -2 6 -13 5 -11 0 -14 -3 -6 -6z"/>
<path d="M1167 7304 c-4 -4 -7 -17 -7 -28 1 -19 1 -20 11 -3 11 19 8 43 -4 31z"/>
<path d="M10438 5993 c4 -195 6 -223 16 -212 7 8 -7 419 -14 419 -4 0 -5 -93
-2 -207z"/>
<path d="M1820 5770 c0 -5 4 -10 9 -10 6 0 13 5 16 10 3 6 -1 10 -9 10 -9 0
-16 -4 -16 -10z"/>
<path d="M9780 5750 c0 -20 5 -30 15 -30 10 0 15 10 15 30 0 20 -5 30 -15 30
-10 0 -15 -10 -15 -30z"/>
<path d="M1788 5763 c7 -3 16 -2 19 1 4 3 -2 6 -13 5 -11 0 -14 -3 -6 -6z"/>
<path d="M10191 5674 c0 -11 3 -14 6 -6 3 7 2 16 -1 19 -3 4 -6 -2 -5 -13z"/>
<path d="M10231 5644 c0 -11 3 -14 6 -6 3 7 2 16 -1 19 -3 4 -6 -2 -5 -13z"/>
<path d="M10380 5615 c0 -8 5 -15 10 -15 6 0 10 7 10 15 0 8 -4 15 -10 15 -5
0 -10 -7 -10 -15z"/>
<path d="M10157 4793 c-2 -21 -1 -45 4 -53 5 -10 9 4 9 38 0 61 -6 68 -13 15z"/>
<path d="M9950 4760 c0 -5 5 -10 10 -10 6 0 10 5 10 10 0 6 -4 10 -10 10 -5 0
-10 -4 -10 -10z"/>
<path d="M9954 4716 c-3 -8 -1 -23 5 -33 9 -15 10 -13 11 15 0 34 -7 42 -16
18z"/>
<path d="M10163 4665 c0 -27 2 -38 4 -22 2 15 2 37 0 50 -2 12 -4 0 -4 -28z"/>
<path d="M9912 4671 c-10 -6 -12 -30 -6 -105 4 -53 11 -99 15 -102 9 -5 13 31
10 69 -2 11 5 17 17 17 14 0 20 7 20 25 0 30 -14 33 -21 4 -11 -42 -25 -10
-16 38 10 49 3 68 -19 54z"/>
<path d="M10760 4626 c0 -8 5 -18 10 -21 6 -3 10 3 10 14 0 12 -4 21 -10 21
-5 0 -10 -6 -10 -14z"/>
<path d="M10790 4633 c0 -5 5 -15 10 -23 8 -12 10 -11 10 8 0 12 -4 22 -10 22
-5 0 -10 -3 -10 -7z"/>
<path d="M9875 4517 c-4 -10 -5 -21 -1 -24 10 -10 18 4 13 24 -4 17 -4 17 -12
0z"/>
<path d="M10772 4485 c1 -27 3 -38 5 -22 4 28 23 38 23 12 0 -8 9 -15 20 -15
13 0 20 7 20 20 0 13 -5 18 -15 14 -8 -4 -15 -1 -15 5 0 6 -6 11 -14 11 -8 0
-17 6 -19 13 -3 6 -5 -10 -5 -38z"/>
<path d="M9950 4430 c0 -5 5 -10 10 -10 6 0 10 5 10 10 0 6 -4 10 -10 10 -5 0
-10 -4 -10 -10z"/>
<path d="M10480 4345 c0 -19 5 -35 10 -35 6 0 10 9 10 19 0 11 3 26 6 35 4 11
1 16 -10 16 -12 0 -16 -10 -16 -35z"/>
<path d="M10350 4295 c0 -33 4 -45 13 -43 17 6 18 65 1 79 -12 10 -14 4 -14
-36z"/>
<path d="M10425 4310 c-3 -5 -1 -10 4 -10 6 0 11 5 11 10 0 6 -2 10 -4 10 -3
0 -8 -4 -11 -10z"/>
<path d="M10345 4231 c-3 -5 -1 -12 5 -16 5 -3 10 1 10 9 0 18 -6 21 -15 7z"/>
<path d="M10250 4219 c0 -5 5 -7 10 -4 6 3 10 8 10 11 0 2 -4 4 -10 4 -5 0
-10 -5 -10 -11z"/>
<path d="M10300 4220 c0 -5 5 -10 10 -10 6 0 10 5 10 10 0 6 -4 10 -10 10 -5
0 -10 -4 -10 -10z"/>
<path d="M10051 4204 c0 -11 3 -14 6 -6 3 7 2 16 -1 19 -3 4 -6 -2 -5 -13z"/>
<path d="M10050 2700 c0 -5 -13 -10 -30 -10 -20 0 -30 -5 -30 -15 0 -10 10
-15 30 -15 21 0 30 5 30 16 0 11 8 15 28 13 70 -5 212 2 212 11 0 6 -47 10
-120 10 -73 0 -120 -4 -120 -10z"/>
<path d="M10148 2663 c7 -3 16 -2 19 1 4 3 -2 6 -13 5 -11 0 -14 -3 -6 -6z"/>
<path d="M9335 1550 c4 -6 11 -8 16 -5 14 9 11 15 -7 15 -8 0 -12 -5 -9 -10z"/>
<path d="M9208 1453 c-29 -14 -39 -53 -15 -53 16 0 57 42 57 58 0 15 -7 14
-42 -5z"/>
</g>
</svg>
